<svg width="421" height="401" viewBox="0 0 421 401" fill="none" xmlns="http://www.w3.org/2000/svg">
<mask id="mask0_183_1021" style="mask-type:luminance" maskUnits="userSpaceOnUse" x="0" y="8" width="403" height="392">
<path d="M371.638 245.056C377.99 266.865 380.935 289.964 377.404 312.4C373.874 334.836 363.495 356.6 346.348 371.546C333.388 382.839 317.155 389.843 300.557 394.38C282.781 399.244 264.09 401.455 245.825 398.943C227.561 396.432 208.32 388.791 194.952 376.136C174.434 388.871 148.159 392.603 125.361 384.59C102.564 376.587 82.9862 355.964 78.3646 332.316C53.3315 333.262 28.2364 320.165 14.7529 299.117C1.2695 278.069 -1.01913 248.479 10.3619 226.237C3.62021 219.622 -0.220764 210.16 0.00985718 200.732C0.240509 191.305 3.12347 178.588 10.1845 172.309C2.00577 145.124 6.80481 114.357 22.8785 90.9303C38.9433 67.5037 65.9634 51.8859 94.3407 49.6131C111.958 26.381 139.661 11.2585 168.783 8.97684C197.915 6.69519 227.419 15.751 251.582 32.1205C277.458 17.9354 313.092 18.5102 337.947 34.4021C362.803 50.294 377.865 80.2915 375.719 109.661C375.719 109.661 403.111 139.243 402.366 181.621C401.603 224 371.638 245.056 371.638 245.056Z" fill="white"/>
</mask>
<g mask="url(#mask0_183_1021)">
<path d="M-13.2164 415.649L434.221 415.649L434.221 -15.6614L-13.2164 -15.6614L-13.2164 415.649Z" fill="#EDB7AB"/>
</g>
<mask id="mask1_183_1021" style="mask-type:luminance" maskUnits="userSpaceOnUse" x="18" y="0" width="403" height="392">
<path d="M49.3618 154.932C43.0103 133.123 40.0653 110.024 43.5958 87.5879C47.1263 65.1517 57.505 43.3877 74.6521 28.442C87.6121 17.1487 103.845 10.1446 120.443 5.60787C138.219 0.7439 156.91 -1.467 175.175 1.04458C193.439 3.55616 212.68 11.197 226.048 23.8522C246.566 11.1174 272.841 7.38543 295.639 15.3977C318.436 23.4012 338.014 44.0244 342.635 67.6721C367.668 66.7259 392.764 79.8232 406.247 100.871C419.73 121.919 422.019 151.509 410.638 173.751C417.38 180.366 421.221 189.829 420.99 199.256C420.759 208.683 417.877 221.4 410.815 227.679C418.994 254.864 414.195 285.631 398.122 309.058C382.057 332.484 355.037 348.102 326.659 350.375C309.042 373.607 281.339 388.73 252.217 391.011C223.085 393.293 193.581 384.237 169.418 367.868C143.542 382.053 107.908 381.478 83.0526 365.586C58.1969 349.694 43.1345 319.697 45.2812 290.327C45.2812 290.327 17.8886 260.745 18.6337 218.367C19.3966 175.988 49.3618 154.932 49.3618 154.932Z" fill="white"/>
</mask>
<g mask="url(#mask1_183_1021)">
<g opacity="0.5">
<path d="M42.1945 228.112V715.924" stroke="#F6F8EA" stroke-width="0.927" stroke-miterlimit="10"/>
<path d="M71.991 228.112V715.924" stroke="#F6F8EA" stroke-width="0.927" stroke-miterlimit="10"/>
<path d="M101.788 228.112V715.924" stroke="#F6F8EA" stroke-width="0.927" stroke-miterlimit="10"/>
<path d="M131.584 228.112V715.924" stroke="#F6F8EA" stroke-width="0.927" stroke-miterlimit="10"/>
<path d="M161.381 228.112V715.924" stroke="#F6F8EA" stroke-width="0.927" stroke-miterlimit="10"/>
<path d="M191.177 228.112V715.924" stroke="#F6F8EA" stroke-width="0.927" stroke-miterlimit="10"/>
<path d="M220.965 228.112V715.924" stroke="#F6F8EA" stroke-width="0.927" stroke-miterlimit="10"/>
<path d="M250.762 228.112V715.924" stroke="#F6F8EA" stroke-width="0.927" stroke-miterlimit="10"/>
<path d="M280.559 228.112V715.924" stroke="#F6F8EA" stroke-width="0.927" stroke-miterlimit="10"/>
<path d="M310.355 228.112V715.924" stroke="#F6F8EA" stroke-width="0.927" stroke-miterlimit="10"/>
<path d="M340.152 228.112V715.924" stroke="#F6F8EA" stroke-width="0.927" stroke-miterlimit="10"/>
<path d="M369.948 228.112V715.924" stroke="#F6F8EA" stroke-width="0.927" stroke-miterlimit="10"/>
<path d="M399.736 228.112V715.924" stroke="#F6F8EA" stroke-width="0.927" stroke-miterlimit="10"/>
<path d="M539.547 228.156H-128.549" stroke="#F6F8EA" stroke-width="1.0696" stroke-miterlimit="10"/>
<path d="M539.547 257.862H-128.549" stroke="#F6F8EA" stroke-width="1.0696" stroke-miterlimit="10"/>
<path d="M539.547 287.568H-128.549" stroke="#F6F8EA" stroke-width="1.0696" stroke-miterlimit="10"/>
<path d="M539.547 317.264H-128.549" stroke="#F6F8EA" stroke-width="1.0696" stroke-miterlimit="10"/>
<path d="M539.547 346.97H-128.549" stroke="#F6F8EA" stroke-width="1.0696" stroke-miterlimit="10"/>
<path d="M539.547 376.676H-128.549" stroke="#F6F8EA" stroke-width="1.0696" stroke-miterlimit="10"/>
</g>
</g>
<mask id="mask2_183_1021" style="mask-type:luminance" maskUnits="userSpaceOnUse" x="18" y="0" width="403" height="392">
<path d="M49.3618 154.932C43.0103 133.123 40.0653 110.024 43.5958 87.5879C47.1263 65.1517 57.505 43.3877 74.6521 28.442C87.6121 17.1487 103.845 10.1446 120.443 5.60787C138.219 0.7439 156.91 -1.467 175.175 1.04458C193.439 3.55616 212.68 11.197 226.048 23.8522C246.566 11.1174 272.841 7.38543 295.639 15.3977C318.436 23.4012 338.014 44.0244 342.635 67.6721C367.668 66.7259 392.764 79.8232 406.247 100.871C419.73 121.919 422.019 151.509 410.638 173.751C417.38 180.366 421.221 189.829 420.99 199.256C420.759 208.683 417.877 221.4 410.815 227.679C418.994 254.864 414.195 285.631 398.122 309.058C382.057 332.484 355.037 348.102 326.659 350.375C309.042 373.607 281.339 388.73 252.217 391.011C223.085 393.293 193.581 384.237 169.418 367.868C143.542 382.053 107.908 381.478 83.0526 365.586C58.1969 349.694 43.1345 319.697 45.2812 290.327C45.2812 290.327 17.8886 260.745 18.6337 218.367C19.3966 175.988 49.3618 154.932 49.3618 154.932Z" fill="white"/>
</mask>
<g mask="url(#mask2_183_1021)">
<path d="M487.485 224.319H-41.9264V232.543H487.485V224.319Z" fill="#F6DBD5"/>
</g>
<mask id="mask3_183_1021" style="mask-type:luminance" maskUnits="userSpaceOnUse" x="18" y="0" width="403" height="392">
<path d="M49.3618 154.932C43.0103 133.123 40.0653 110.024 43.5958 87.5879C47.1263 65.1517 57.505 43.3877 74.6521 28.442C87.6121 17.1487 103.845 10.1446 120.443 5.60787C138.219 0.7439 156.91 -1.467 175.175 1.04458C193.439 3.55616 212.68 11.197 226.048 23.8522C246.566 11.1174 272.841 7.38543 295.639 15.3977C318.436 23.4012 338.014 44.0244 342.635 67.6721C367.668 66.7259 392.764 79.8232 406.247 100.871C419.73 121.919 422.019 151.509 410.638 173.751C417.38 180.366 421.221 189.829 420.99 199.256C420.759 208.683 417.877 221.4 410.815 227.679C418.994 254.864 414.195 285.631 398.122 309.058C382.057 332.484 355.037 348.102 326.659 350.375C309.042 373.607 281.339 388.73 252.217 391.011C223.085 393.293 193.581 384.237 169.418 367.868C143.542 382.053 107.908 381.478 83.0526 365.586C58.1969 349.694 43.1345 319.697 45.2812 290.327C45.2812 290.327 17.8886 260.745 18.6337 218.367C19.3966 175.988 49.3618 154.932 49.3618 154.932Z" fill="white"/>
</mask>
<g mask="url(#mask3_183_1021)">
<g opacity="0.8">
<path d="M87.754 105.054C85.3412 101.906 82.476 98.9872 81.0744 95.2817C79.7793 91.8504 79.868 88.0653 79.9833 84.4041C80.7107 60.0666 81.4381 35.7379 82.1566 11.4003C82.2542 8.23431 82.334 4.97988 81.2873 1.99075C80.3115 -0.794984 76.9673 -4.11133 74.9891 -4.11133C73.0021 -4.11133 69.6578 -0.78614 68.6909 1.99075C67.6442 4.98872 67.724 8.23431 67.8216 11.4003C68.549 35.7379 69.2764 60.0666 69.9949 84.4041C70.1013 88.0742 70.1989 91.8504 68.9038 95.2817C67.5022 98.9872 64.637 101.914 62.2242 105.054C55.4115 113.933 51.9431 125.704 54.551 136.572C57.1058 147.229 92.8813 147.229 95.436 136.572C98.0351 125.704 94.5667 113.933 87.754 105.054ZM75.2109 8.95949C72.5763 8.95949 70.4384 6.82818 70.4384 4.20164C70.4384 1.5751 72.5763 -0.556208 75.2109 -0.556208C77.8455 -0.556208 79.9833 1.5751 79.9833 4.20164C79.9833 6.83703 77.8455 8.95949 75.2109 8.95949Z" fill="#F7E5D6"/>
<path d="M91.5861 131.257C91.5861 135.838 84.0815 139.553 74.8294 139.553C65.5772 139.553 58.0726 135.838 58.0726 131.257C58.0726 126.676 65.5772 102.746 74.8294 102.746C84.0815 102.746 91.5861 126.676 91.5861 131.257Z" fill="#F1C2B9"/>
<path d="M120.54 5.24512H114.836V161.379H120.54V5.24512Z" fill="#F6F8EA"/>
<path d="M103.624 214.44C102.852 210.018 102.195 205.597 101.628 201.175L101.193 197.858C101.042 196.753 101.22 195.648 101.202 194.542V187.909V161.379V158.964H103.624H131.752H134.174V161.379V187.909V194.542C134.139 195.648 134.334 196.753 134.148 197.858L133.713 201.175C133.145 205.597 132.498 210.018 131.752 214.44C131.007 210.018 130.36 205.597 129.792 201.175L129.357 197.858C129.18 196.753 129.366 195.648 129.331 194.542V187.909V161.379L131.752 163.793H103.624L106.045 161.379V187.909V194.542C106.027 195.648 106.196 196.753 106.054 197.858L105.619 201.175C105.052 205.597 104.395 210.018 103.624 214.44Z" fill="#F6F8EA"/>
<path d="M120.114 161.759L117.684 211.787L115.262 161.759H120.114Z" fill="#F6F8EA"/>
<path d="M366.826 106.778H357.707V48.4106C357.707 45.899 359.747 43.865 362.266 43.865C364.785 43.865 366.826 45.899 366.826 48.4106V106.778Z" fill="#E39382"/>
<path d="M382.403 98.5715L357.707 106.778L351.621 185.981C361.938 185.981 372.396 190.651 381.152 196.841C390.759 165.066 391.247 130.568 382.403 98.5715Z" fill="#F7E5D6"/>
<path d="M392.054 95.3701L382.403 98.5715C391.238 130.568 390.759 165.066 381.143 196.841C383.361 198.416 385.472 200.078 387.441 201.794C400.339 168.825 397.563 130.32 392.054 95.3701Z" fill="#F6F8EA"/>
<path d="M271.954 147.264C307.242 147.264 335.849 118.745 335.849 83.5638C335.849 48.3831 307.242 19.8635 271.954 19.8635C236.665 19.8635 208.058 48.3831 208.058 83.5638C208.058 118.745 236.665 147.264 271.954 147.264Z" fill="#F7E5D6"/>
<path d="M312.832 124.319C335.408 101.812 335.408 65.3203 312.832 42.8132C290.256 20.3061 253.653 20.3061 231.077 42.8132C208.501 65.3203 208.501 101.812 231.077 124.319C253.653 146.826 290.256 146.826 312.832 124.319Z" fill="#F1C2B9"/>
<path d="M245.492 27.8493C245.492 27.8493 236.444 22.3398 239.46 13.8146C242.476 5.29822 302.3 5.79345 306.824 12.8153C311.348 19.8282 301.795 29.3528 301.795 29.3528" stroke="#F7E5D6" stroke-width="3.3835" stroke-miterlimit="10"/>
<path d="M245.492 139.296C245.492 139.296 236.444 144.806 239.46 153.331C242.476 161.847 302.3 161.352 306.824 154.33C311.348 147.317 301.795 137.793 301.795 137.793" stroke="#F7E5D6" stroke-width="3.3835" stroke-miterlimit="10"/>
</g>
</g>
<mask id="mask4_183_1021" style="mask-type:alpha" maskUnits="userSpaceOnUse" x="0" y="7" width="403" height="394">
<mask id="mask5_183_1021" style="mask-type:luminance" maskUnits="userSpaceOnUse" x="0" y="7" width="403" height="394">
<path d="M371.796 245.226C378.147 267.153 381.092 290.378 377.562 312.936C374.031 335.494 363.652 357.376 346.505 372.403C333.545 383.758 317.312 390.8 300.715 395.362C282.938 400.252 264.247 402.475 245.983 399.95C227.718 397.425 208.477 389.742 195.109 377.018C174.591 389.822 148.316 393.574 125.519 385.519C102.721 377.472 83.1436 356.736 78.5219 332.96C53.4889 333.911 28.3937 320.743 14.9103 299.581C1.42685 278.419 -0.861786 248.667 10.5193 226.305C3.77756 219.654 -0.0634155 210.14 0.167206 200.661C0.397858 191.183 3.28082 178.396 10.3419 172.083C2.16312 144.75 6.96216 113.816 23.0358 90.2623C39.1006 66.7083 66.1207 51.0056 94.498 48.7205C112.115 25.3621 139.818 10.1574 168.941 7.86334C198.072 5.56931 227.576 14.6743 251.74 31.1328C277.616 16.8706 313.249 17.4485 338.105 33.4268C362.96 49.4052 378.023 79.5656 375.876 109.095C375.876 109.095 403.269 138.837 402.524 181.446C401.761 224.055 371.796 245.226 371.796 245.226Z" fill="white"/>
</mask>
<g mask="url(#mask5_183_1021)">
<path d="M-13.0591 416.746L434.378 416.746L434.378 -16.9088L-13.0591 -16.9088L-13.0591 416.746Z" fill="#EDB7AB"/>
</g>
</mask>
<g mask="url(#mask4_183_1021)">
<path d="M372.505 233.861L337.105 225.619L332.614 229.4L349.871 244.869L372.505 233.861Z" fill="#29433F"/>
<path d="M327.859 189.948C327.859 189.948 347.315 176.361 349.607 181.939C350.796 184.82 349.358 186.323 349.358 186.323C349.358 186.323 352.544 186.834 352.925 189.499C353.306 192.171 351.651 193.821 351.651 193.821C351.651 193.821 353.749 194.363 354.254 196.525C354.766 198.686 352.925 201.32 352.925 201.32C352.925 201.32 356.546 203.179 353.717 206.874C352.466 208.5 336.352 207.547 336.352 207.547L327.859 189.948Z" fill="#CA8567"/>
<path d="M352.668 203.101L346.919 223.97L337.502 224.21L336.095 206.153L352.668 203.101Z" fill="#CA8567"/>
<path d="M349.46 186.091C346.989 187.655 344.37 188.926 341.705 190.088C339.032 191.226 336.305 192.264 333.477 192.992C336.049 191.606 338.698 190.428 341.348 189.267C344.021 188.136 346.686 187.012 349.46 186.091Z" fill="#193E00"/>
<path d="M351.814 193.527C349.397 195.076 346.818 196.331 344.199 197.462C341.565 198.57 338.877 199.553 336.079 200.22C338.628 198.887 341.231 197.764 343.842 196.641C346.468 195.541 349.086 194.441 351.814 193.527Z" fill="#193E00"/>
<path d="M352.677 201.165C350.851 202.273 348.877 203.047 346.857 203.667C344.829 204.263 342.754 204.72 340.625 204.806C342.607 204.023 344.604 203.427 346.601 202.807C348.605 202.218 350.594 201.614 352.677 201.165Z" fill="#193E00"/>
<path d="M353.586 207.029C351.721 207.919 349.732 208.438 347.711 208.779C345.691 209.097 343.632 209.236 341.581 208.981C343.593 208.524 345.575 208.229 347.564 207.896C349.561 207.586 351.534 207.23 353.586 207.029Z" fill="#193E00"/>
<path d="M270.913 110.333C273.943 114.159 276.826 118.063 279.709 121.975L287.308 134.354L294.915 146.701C296.01 148.459 297.821 149.738 299.841 150.195C301.861 150.667 304.044 150.319 305.808 149.234C307.58 148.157 308.885 146.376 309.374 144.362C309.879 142.355 309.561 140.171 308.481 138.405L300.882 126.05L293.275 113.679C291.1 109.341 288.908 105.003 286.842 100.588C289.849 104.422 292.731 108.334 295.629 112.238L303.236 124.609L310.851 136.995C312.296 139.365 312.731 142.332 312.055 145.02C311.402 147.716 309.631 150.133 307.253 151.573C304.883 153.037 301.923 153.51 299.211 152.867C296.5 152.255 294.044 150.52 292.576 148.157L284.954 135.779L277.331 123.416C275.148 119.094 272.957 114.756 270.913 110.333Z" fill="#789792"/>
<path d="M306.531 150.404L330.447 189.267" stroke="#789792" stroke-width="3.5544" stroke-miterlimit="10"/>
<path d="M324.417 179.468L348.325 218.322" stroke="#29433F" stroke-width="6.2201" stroke-miterlimit="10"/>
<path d="M282.661 84.7314C282.032 77.9148 281.418 70.8967 283.376 64.3434C284.192 64.0491 284.829 65.0638 285.078 65.8927C285.886 68.6503 286.36 71.5087 286.469 74.3825C287.658 71.5164 288.839 68.6581 290.027 65.792C290.167 65.4589 290.354 65.0793 290.703 64.9941C291.395 64.8237 291.706 65.8384 291.659 66.5511C291.496 69.301 291.131 72.0354 290.563 74.7388C292.7 70.4862 295.412 66.5201 298.605 62.9801C299.134 62.3991 299.693 61.8104 300.431 61.547C301.169 61.2837 302.125 61.4541 302.514 62.1358C302.832 62.6935 302.692 63.3984 302.529 64.0181C301.278 68.7665 299.46 73.3678 297.106 77.6901C298.015 76.2184 300.392 73.9332 301.325 74.9635C302.257 75.9937 299.981 79.007 298.753 80.7421C300.027 80.0837 301.348 79.5415 302.716 79.1154C303.516 78.8676 304.441 78.6739 305.163 79.0999C305.909 79.5415 306.173 80.5175 306.065 81.3773C305.847 83.1047 304.456 84.4293 303.159 85.5913C299.608 88.775 296.065 91.9509 292.514 95.1346" fill="#558D86"/>
<path d="M296.593 97.7063C294.744 101.533 264.876 151.031 258.947 148.181C253.019 145.33 273.267 91.2072 275.117 87.3806C276.966 83.554 281.34 77.0704 291.076 81.7491C300.804 86.4278 298.442 93.8719 296.593 97.7063Z" fill="#D14B2E"/>
<path d="M278.434 87.2644C279.623 87.3109 280.797 87.5278 281.946 87.8686C283.096 88.2017 284.2 88.682 285.249 89.2552C286.29 89.8439 287.284 90.5256 288.17 91.3157C289.064 92.1058 289.872 92.9889 290.54 93.9726C289.693 93.1438 288.823 92.3692 287.89 91.6643C286.958 90.9671 285.987 90.3164 284.969 89.7587C283.959 89.1855 282.894 88.7129 281.807 88.2869C280.711 87.8764 279.584 87.551 278.434 87.2644Z" fill="#29433F"/>
<path d="M281.574 94.4761C283.33 94.724 285.031 95.2894 286.64 96.0331C288.24 96.7922 289.771 97.7295 291.084 98.9224C289.507 98.109 287.976 97.2879 286.391 96.5598C284.821 95.8162 283.205 95.1655 281.574 94.4761Z" fill="#29433F"/>
<path d="M276.632 98.2874C277.634 98.419 278.621 98.6592 279.584 98.9613C280.556 99.2556 281.488 99.6507 282.405 100.084C283.314 100.534 284.2 101.03 285.031 101.61C285.863 102.184 286.663 102.803 287.385 103.516C286.515 102.997 285.668 102.478 284.798 101.99C283.928 101.51 283.05 101.037 282.156 100.611C281.263 100.17 280.354 99.7746 279.437 99.3873C278.512 99 277.572 98.6514 276.632 98.2874Z" fill="#29433F"/>
<path d="M277.65 106.537C279.126 106.885 280.501 107.575 281.752 108.427C282.988 109.295 284.114 110.356 284.946 111.618C283.772 110.666 282.63 109.744 281.418 108.907C280.214 108.047 278.947 107.304 277.65 106.537Z" fill="#29433F"/>
<path d="M271.504 113.454C272.918 113.555 274.301 114.043 275.536 114.732C276.772 115.437 277.898 116.367 278.706 117.529C277.564 116.692 276.445 115.91 275.249 115.236C274.06 114.554 272.809 114.004 271.504 113.454Z" fill="#29433F"/>
<path d="M266.205 121.046C267.44 121.294 268.598 121.844 269.654 122.533C270.703 123.23 271.659 124.082 272.374 125.12C271.333 124.408 270.362 123.687 269.336 123.013C268.318 122.332 267.269 121.72 266.205 121.046Z" fill="#29433F"/>
<path d="M263.431 128.01C264.845 128.35 266.197 128.862 267.487 129.543C268.761 130.233 269.981 131.116 270.835 132.301C269.662 131.449 268.466 130.721 267.215 130.055C265.964 129.373 264.666 128.769 263.431 128.01Z" fill="#29433F"/>
<path d="M262.413 134.377C263.299 134.462 264.122 134.818 264.86 135.291C265.591 135.771 266.251 136.375 266.686 137.15C265.925 136.701 265.249 136.228 264.542 135.779C263.85 135.306 263.136 134.888 262.413 134.377Z" fill="#29433F"/>
<path d="M290.214 88.5271C291.48 88.6046 292.716 89.0693 293.803 89.72C294.883 90.3862 295.855 91.2693 296.507 92.3615C295.513 91.5791 294.549 90.8432 293.5 90.2158C292.467 89.5728 291.371 89.0461 290.214 88.5271Z" fill="#29433F"/>
<path d="M270.059 107.583C271.286 107.621 272.483 107.947 273.609 108.419C274.728 108.907 275.793 109.543 276.671 110.402C275.544 109.922 274.48 109.411 273.384 108.954C272.296 108.474 271.185 108.063 270.059 107.583Z" fill="#29433F"/>
<path d="M272.902 120.015C274.029 120.186 275.093 120.62 276.08 121.17C277.059 121.735 277.976 122.424 278.691 123.308C277.681 122.781 276.748 122.208 275.785 121.673C274.845 121.123 273.874 120.612 272.902 120.015Z" fill="#29433F"/>
<path d="M261.418 139.179C262.102 139.226 262.716 139.458 263.291 139.753C263.866 140.063 264.402 140.434 264.829 140.969C264.161 140.822 263.586 140.558 263.019 140.264C262.467 139.962 261.916 139.644 261.418 139.179Z" fill="#29433F"/>
<path d="M332.475 225.619C332.475 225.619 321.962 213.853 321.962 206.602C321.962 199.352 329.359 185.424 331.325 185.424C333.29 185.424 334.409 191.799 333.625 194.735C332.84 197.671 331.985 197.981 333.36 199.553C334.736 201.118 339.545 205.541 339.934 212.792C340.33 220.042 337.105 225.627 337.105 225.627H332.475V225.619Z" fill="#CA8567"/>
<path d="M351.138 238.285C350.881 237.525 346.919 223.97 346.919 223.97L334.634 219.562L332.467 225.62L333.36 239.803L351.138 238.285Z" fill="#CA8567"/>
<path d="M202.336 212.706C203.929 216.494 206.197 220.429 208.528 223.814C208.777 219.833 209.057 215.696 209.002 211.699C212.274 210.816 215.28 209.197 217.782 206.982C215.521 200.08 212.934 189.987 212.934 189.987L183.478 191.474C183.478 191.474 184.465 203.124 183.268 211.885C189.476 213.535 196.027 213.822 202.336 212.706Z" fill="#CA8567"/>
<path d="M352.746 237.58C344.914 237.208 332.614 229.4 332.614 229.4L326.647 302.988C326.647 302.988 300.921 242.777 291.232 236.456C281.535 230.135 222.258 216.386 220.02 212.668C219.414 211.661 218.621 209.546 217.782 206.99C215.28 209.197 212.273 210.816 209.002 211.707C209.057 215.696 208.785 219.833 208.528 223.822C206.197 220.437 203.928 216.502 202.336 212.714C196.026 213.83 189.469 213.543 183.276 211.909C182.833 215.17 182.087 218.036 180.875 219.748C176.4 226.069 142.103 236.1 127.565 248.37C113.028 260.632 75.7399 349.466 84.318 363.223C92.896 376.972 148.07 374.37 148.07 374.37L145.833 396.369H292.723L288.994 343.881C288.994 343.881 324.262 372.805 352.047 363.579C379.832 354.346 372.505 233.869 372.505 233.869C372.505 233.869 360.578 237.951 352.746 237.58Z" fill="white"/>
<path d="M330.664 251.229C333.873 253.01 337.206 254.459 340.664 255.52C344.114 256.573 347.665 257.263 351.254 257.542C354.836 257.844 358.457 257.728 362.031 257.247C365.613 256.759 369.141 255.868 372.591 254.621C369.397 256.442 365.862 257.689 362.226 258.409C358.589 259.145 354.836 259.331 351.122 259.044C347.416 258.727 343.741 257.937 340.275 256.628C336.81 255.334 333.523 253.529 330.664 251.229Z" fill="#29433F"/>
<path d="M341.449 244.714C341.449 246.302 340.159 247.588 338.566 247.588C336.973 247.588 335.684 246.302 335.684 244.714C335.684 243.126 336.973 241.84 338.566 241.84C340.151 241.84 341.449 243.126 341.449 244.714Z" fill="#29433F"/>
<path d="M327.61 292.012C327.54 295.142 327.346 298.248 327.136 301.346C326.934 304.453 326.67 307.543 326.414 310.642C326.134 313.733 325.862 316.831 325.528 319.922C325.202 323.013 324.86 326.111 324.386 329.202C324.223 326.08 324.238 322.958 324.339 319.844C324.432 316.73 324.642 313.616 324.891 310.51C325.178 307.404 325.505 304.305 325.955 301.222C326.39 298.139 326.911 295.064 327.61 292.012Z" fill="#29433F"/>
<path d="M326.196 301.006C325.248 302.942 324.316 304.84 323.446 306.761C322.591 308.69 321.775 310.626 321.068 312.602C320.33 314.569 319.701 316.568 319.102 318.597C318.519 320.627 317.999 322.679 317.471 324.763C317.377 322.61 317.572 320.456 317.945 318.334C318.317 316.204 318.908 314.12 319.638 312.09C320.4 310.069 321.301 308.093 322.397 306.234C323.484 304.36 324.728 302.586 326.196 301.006Z" fill="#29433F"/>
<path d="M280.494 247.928C281.721 257.464 282.825 267.015 283.796 276.582C284.79 286.14 285.661 295.715 286.484 305.297C287.277 314.879 288.023 324.461 288.644 334.051C289.289 343.641 289.794 353.246 290.183 362.851C289.211 353.285 288.302 343.718 287.463 334.144L284.977 305.421L282.63 276.69C281.846 267.108 281.138 257.526 280.494 247.928Z" fill="#29433F"/>
<path d="M182.437 215.627L186.508 216.533C187.86 216.835 189.228 217.083 190.58 217.292C193.299 217.695 196.034 217.749 198.769 217.525L199.142 217.494L199.352 217.827C200.479 219.577 201.652 221.305 202.825 223.032L206.361 228.214L213.447 238.563L212.11 238.943L212.74 227.385C212.926 223.536 213.144 219.678 213.19 215.836V215.619L213.369 215.549C215.444 214.72 217.355 213.466 219.142 212.063C217.542 213.675 215.692 215.069 213.625 216.107L213.804 215.82C213.936 217.757 213.952 219.693 213.967 221.63C213.983 223.567 213.96 225.495 213.928 227.432C213.905 229.368 213.851 231.297 213.789 233.226C213.719 235.155 213.672 237.091 213.571 239.02L213.462 241.166L212.235 239.4L208.653 234.241C207.456 232.521 206.298 230.778 205.117 229.051C202.771 225.581 200.463 222.095 198.249 218.508L198.831 218.81C197.425 218.857 196.011 218.841 194.597 218.733C193.19 218.632 191.792 218.4 190.417 218.106C189.041 217.811 187.705 217.393 186.376 216.982C185.063 216.549 183.75 216.099 182.437 215.627Z" fill="#29433F"/>
<path d="M189.733 260.88C191.797 260.88 193.47 259.212 193.47 257.154C193.47 255.096 191.797 253.428 189.733 253.428C187.669 253.428 185.995 255.096 185.995 257.154C185.995 259.212 187.669 260.88 189.733 260.88Z" fill="#29433F"/>
<path d="M239.67 252.414C241.734 252.414 243.408 250.745 243.408 248.688C243.408 246.63 241.734 244.962 239.67 244.962C237.606 244.962 235.933 246.63 235.933 248.688C235.933 250.745 237.606 252.414 239.67 252.414Z" fill="#29433F"/>
<path d="M199.29 285.645C199.096 287.69 197.27 289.2 195.218 289.007C193.167 288.813 191.652 286.993 191.846 284.948C192.04 282.903 193.866 281.392 195.918 281.586C197.969 281.779 199.484 283.6 199.29 285.645Z" fill="#29433F"/>
<path d="M249.802 281.896C249.608 283.941 247.782 285.451 245.731 285.257C243.679 285.064 242.164 283.243 242.359 281.198C242.553 279.153 244.379 277.643 246.43 277.837C248.489 278.03 249.996 279.843 249.802 281.896Z" fill="#29433F"/>
<path d="M202.569 315.506C202.258 317.544 200.354 318.938 198.311 318.628C196.267 318.318 194.869 316.421 195.179 314.383C195.49 312.346 197.394 310.952 199.437 311.262C201.473 311.571 202.879 313.469 202.569 315.506Z" fill="#29433F"/>
<path d="M253.213 314.616C252.903 316.653 250.999 318.047 248.955 317.737C246.912 317.428 245.513 315.53 245.824 313.492C246.135 311.455 248.039 310.061 250.082 310.371C252.126 310.681 253.524 312.578 253.213 314.616Z" fill="#29433F"/>
<path d="M133.401 131.922C133.401 131.922 143.509 116.282 168.668 107.196C193.827 98.1093 218.287 105.282 218.287 105.282L199.414 51.3687C199.414 51.3687 180.751 42.8246 148.086 54.6996C115.421 66.5745 107.41 88.9998 107.41 88.9998L133.401 131.922Z" fill="white"/>
<path d="M123.952 116.259C151.139 86.1413 186.244 81.695 211.582 84.166" stroke="#29433F" stroke-width="0.9089" stroke-miterlimit="10"/>
<path d="M164.185 89.3095L148.086 54.6995" stroke="#29433F" stroke-width="0.9089" stroke-miterlimit="10"/>
<path d="M133.813 61.2527L151.94 94.7008" stroke="#29433F" stroke-width="0.9089" stroke-miterlimit="10"/>
<path d="M122.367 69.3398L141.093 100.921" stroke="#29433F" stroke-width="0.9089" stroke-miterlimit="10"/>
<path d="M112.663 79.96L131.427 108.489" stroke="#29433F" stroke-width="0.9089" stroke-miterlimit="10"/>
<path d="M163.229 50.3152L175.156 85.9787" stroke="#29433F" stroke-width="0.9089" stroke-miterlimit="10"/>
<path d="M177.542 48.2546L187.557 84.5534" stroke="#29433F" stroke-width="0.9089" stroke-miterlimit="10"/>
<path d="M189.943 48.8899L198.21 83.4457" stroke="#29433F" stroke-width="0.9089" stroke-miterlimit="10"/>
<path d="M240.595 143.192C241.162 146.918 240.346 150.83 238.715 154.107C237.604 156.33 236.096 158.328 234.185 159.614C232.273 160.9 229.927 161.411 227.806 160.714C225.863 160.071 224.224 158.475 223.035 156.578C220.284 152.193 219.795 146.174 221.294 141.023C222.336 137.452 224.41 134.114 227.402 132.657C233.423 129.714 239.593 136.592 240.595 143.192Z" fill="#CA8567"/>
<path opacity="0.5" d="M225.428 156.547C226.912 155.942 228.217 154.897 229.173 153.564C229.461 153.162 229.733 152.635 229.538 152.155C229.43 151.891 229.204 151.698 228.987 151.535C227.674 150.543 226.205 149.784 224.667 149.296C224.861 147.003 225.055 144.679 225.793 142.526C226.524 140.373 227.868 138.366 229.818 137.39C231.768 136.414 234.356 136.678 235.84 138.397C235.84 138.397 240.603 143.192 236.322 151.597C231.807 160.474 225.428 156.547 225.428 156.547Z" fill="#CA8567"/>
<path d="M235.832 138.397C234.558 137.259 232.81 137.011 231.341 137.39C229.857 137.778 228.668 138.847 227.829 140.132C226.982 141.426 226.462 142.921 226.135 144.486C225.817 146.058 225.638 147.693 225.483 149.358L224.915 148.522C225.925 148.87 226.897 149.327 227.798 149.885C228.249 150.172 228.676 150.474 229.088 150.807C229.29 150.977 229.492 151.117 229.733 151.372C229.974 151.612 230.191 152.054 230.168 152.449C230.121 153.239 229.678 153.696 229.352 154.091C229.002 154.494 228.606 154.85 228.194 155.168C227.371 155.819 226.415 156.283 225.428 156.539C226.314 156.035 227.083 155.393 227.744 154.68C228.07 154.316 228.357 153.928 228.629 153.533C228.901 153.138 229.096 152.712 229.049 152.48C229.018 152.371 228.995 152.333 228.87 152.217C228.761 152.116 228.536 151.976 228.334 151.845C227.93 151.581 227.51 151.341 227.083 151.124C226.236 150.675 225.343 150.319 224.426 150.063L223.812 149.893L223.859 149.227C223.983 147.561 224.084 145.841 224.472 144.137C224.667 143.285 224.915 142.433 225.257 141.604C225.607 140.783 226.058 139.993 226.601 139.273C227.674 137.84 229.298 136.631 231.162 136.438C232.973 136.205 234.907 136.941 235.832 138.397Z" fill="#29433F"/>
<path d="M229.189 141.318C234.146 165.16 225.591 195.564 201.675 200.506C177.759 205.448 150.261 182.171 145.304 158.328C140.347 134.485 133.572 118.094 176.874 101.936C199.74 93.3995 224.231 117.475 229.189 141.318Z" fill="#CA8567"/>
<path d="M157.627 145.26C158.171 142.805 159.073 140.411 160.293 138.142C160.922 137.018 161.637 135.926 162.453 134.896C163.276 133.881 164.201 132.921 165.219 132.061C166.244 131.201 167.34 130.388 168.529 129.714C169.717 129.048 171.038 128.59 172.406 128.389C173.766 128.195 175.164 128.203 176.508 128.482C177.845 128.745 179.142 129.264 180.207 130.101L180.106 130.411C178.793 130.488 177.596 130.597 176.438 130.79C175.289 131 174.185 131.263 173.105 131.596C172.033 131.929 170.976 132.278 169.904 132.657C168.832 133.029 167.775 133.509 166.812 134.145C165.84 134.787 164.923 135.523 164.076 136.352C163.214 137.166 162.414 138.064 161.676 139.025C160.168 140.922 158.972 143.091 157.938 145.353L157.627 145.26Z" fill="#29433F"/>
<path d="M218.932 132.13C217.052 130.496 215.055 129.024 212.895 127.917C211.831 127.351 210.727 126.863 209.601 126.484C208.482 126.088 207.34 125.794 206.19 125.608C205.048 125.43 203.882 125.43 202.755 125.531C201.621 125.631 200.518 125.748 199.399 125.887C198.28 126.026 197.169 126.243 196.034 126.538C194.9 126.84 193.773 127.235 192.538 127.707L192.313 127.467C192.934 126.267 193.898 125.267 195.001 124.469C196.104 123.656 197.371 123.067 198.692 122.68C200.013 122.293 201.403 122.169 202.771 122.277C204.138 122.394 205.467 122.68 206.765 123.036C208.055 123.401 209.29 123.881 210.463 124.469C211.636 125.066 212.74 125.763 213.781 126.522C215.832 128.087 217.658 129.884 219.173 131.898L218.932 132.13Z" fill="#29433F"/>
<path opacity="0.5" d="M178.863 163.665C179.57 166.903 177.511 170.095 174.263 170.8C171.015 171.504 167.814 169.452 167.107 166.214C166.4 162.976 168.459 159.784 171.707 159.08C174.954 158.375 178.156 160.427 178.863 163.665Z" fill="#CA8567"/>
<path opacity="0.5" d="M222.522 154.192C223.229 157.43 221.17 160.621 217.922 161.326C214.675 162.031 211.473 159.978 210.766 156.74C210.059 153.502 212.118 150.311 215.366 149.606C218.614 148.909 221.815 150.954 222.522 154.192Z" fill="#CA8567"/>
<path d="M188.63 140.311C191.31 141.914 193.804 143.874 195.988 146.143C198.179 148.405 200.09 150.946 201.66 153.68C202.056 154.362 202.421 155.067 202.771 155.772C203.113 156.477 203.478 157.182 203.734 157.987C203.983 158.777 204.107 159.707 203.804 160.598C203.493 161.481 202.88 162.101 202.336 162.651C200.113 164.92 197.402 166.686 194.48 167.794C197.215 166.284 199.655 164.332 201.691 162.046C202.204 161.473 202.678 160.9 202.864 160.296C203.051 159.684 202.95 159.002 202.716 158.32C202.483 157.647 202.134 156.957 201.784 156.268C201.434 155.586 201.077 154.904 200.681 154.246C199.173 151.574 197.355 149.072 195.343 146.74C193.307 144.416 191.062 142.278 188.63 140.311Z" fill="#29433F"/>
<path d="M170.316 152.309C170.339 150.814 170.953 149.319 171.924 148.111C172.896 146.895 174.24 145.942 175.763 145.462C177.286 144.974 178.941 144.997 180.432 145.431C181.924 145.865 183.292 146.732 184.17 147.948C182.872 147.22 181.536 146.771 180.184 146.593C178.832 146.415 177.472 146.523 176.221 146.91C174.97 147.305 173.797 147.995 172.787 148.917C171.792 149.838 170.953 150.969 170.316 152.309Z" fill="#29433F"/>
<path d="M199.352 143.37C199.375 141.875 199.989 140.38 200.961 139.172C201.932 137.956 203.276 137.003 204.799 136.523C206.33 136.035 207.977 136.058 209.469 136.492C210.96 136.925 212.328 137.793 213.206 139.009C211.908 138.281 210.572 137.832 209.22 137.653C207.868 137.475 206.508 137.584 205.257 137.971C204.006 138.366 202.833 139.056 201.823 139.977C200.821 140.899 199.989 142.03 199.352 143.37Z" fill="#29433F"/>
<path d="M195.428 175.075C194.24 175.292 193.09 175.765 192.103 176.454C194.488 178.902 199.609 180.8 203.027 179.483C203.905 179.142 204.713 178.584 205.428 177.887C204.271 176.95 202.942 176.214 201.535 175.711C199.593 175.006 197.464 174.704 195.428 175.075Z" fill="#D14B2E"/>
<path d="M207.751 167.631C204.83 166.469 204.403 171.195 200.898 172.573C197.464 173.921 192.048 169.692 190.891 173.178C190.541 174.231 191.069 175.393 192.103 176.454C193.09 175.773 194.24 175.3 195.428 175.075C197.464 174.696 199.593 174.998 201.543 175.703C202.942 176.206 204.278 176.942 205.436 177.88C208.73 174.68 210.152 168.584 207.751 167.631Z" fill="#29433F"/>
<path d="M134.395 125.717C131.015 126.452 128.063 128.908 126.734 132.084C125.405 135.26 125.732 139.087 127.581 141.991C123.921 144.013 121.792 148.459 122.523 152.565C123.253 156.67 126.781 160.118 130.914 160.768C130.705 164.223 132.158 167.748 134.745 170.048C137.332 172.357 141.008 173.395 144.434 172.79C160.137 168.638 158.832 140.419 149.399 126.143C152.188 128.846 155.242 128.621 159.073 127.948C162.903 127.274 166.291 123.904 166.306 120.023C170.37 122.308 175.133 123.796 179.71 122.881C184.286 121.96 188.459 118.102 188.583 113.454C190.525 114.98 192.942 115.383 195.389 115.763C197.915 116.158 200.502 115.228 202.584 113.756C204.667 112.285 206.322 110.302 207.922 108.319C220.082 117.784 226.407 133.215 230.028 143.138C233.252 140.14 237.526 136.569 238.233 132.231C238.94 127.893 236.461 122.804 232.126 122.022C236.104 118.187 237.774 112.006 235.886 106.824C233.998 101.641 228.458 97.9 222.949 98.45C221.123 94.8712 216.764 92.4544 212.833 91.5791C208.901 90.7115 204.605 91.6798 201.434 94.1508C200.58 94.817 199.593 95.6458 198.544 95.3747C198 95.2353 197.58 94.8247 197.161 94.4452C192.25 89.9446 185.055 88.0546 178.56 89.5728C172.064 91.0833 166.446 95.9479 164.045 102.153C163.797 102.788 163.455 103.539 162.779 103.609C162.491 103.64 162.204 103.524 161.932 103.415C157.985 101.851 153.478 101.246 149.485 102.703C145.499 104.167 142.243 108.04 142.414 112.269C139.205 112.107 135.98 113.919 134.45 116.739C132.935 119.566 132.492 123.129 134.395 125.717Z" fill="#29433F"/>
<path d="M135.763 173.371C137.06 176.911 139.656 179.956 142.662 182.047C144.706 183.472 146.99 184.503 149.29 184.712C151.59 184.921 153.89 184.255 155.413 182.628C156.812 181.133 157.48 178.956 157.612 176.718C157.915 171.551 155.452 166.036 151.66 162.24C149.026 159.599 145.6 157.67 142.274 157.817C135.569 158.119 133.471 167.105 135.763 173.371Z" fill="#CA8567"/>
<path opacity="0.5" d="M155.498 177.841C153.913 178.019 152.258 177.733 150.774 177.012C150.324 176.795 149.842 176.462 149.772 175.951C149.733 175.664 149.842 175.393 149.958 175.138C150.634 173.635 151.551 172.271 152.678 171.11C151.404 169.188 150.114 167.252 148.436 165.71C146.757 164.169 144.613 163.053 142.437 163.123C140.262 163.193 138.109 164.672 137.643 166.888C137.643 166.888 135.77 173.371 143.572 178.709C151.792 184.332 155.498 177.841 155.498 177.841Z" fill="#CA8567"/>
<path d="M137.635 166.895C137.744 165.176 139.088 163.603 140.79 162.945C142.522 162.224 144.527 162.511 146.151 163.255C146.975 163.627 147.752 164.107 148.451 164.657C149.15 165.222 149.78 165.85 150.355 166.5C151.52 167.81 152.437 169.266 153.346 170.676L153.711 171.233L153.253 171.675C152.569 172.333 151.963 173.077 151.435 173.875C151.163 174.27 150.914 174.68 150.681 175.106C150.572 175.316 150.44 175.548 150.393 175.687C150.339 175.842 150.339 175.889 150.362 176.005C150.432 176.237 150.805 176.516 151.24 176.733C151.668 176.95 152.103 177.159 152.569 177.322C153.494 177.639 154.473 177.825 155.498 177.849C154.511 178.096 153.447 178.135 152.414 177.965C151.893 177.88 151.38 177.756 150.875 177.57C150.401 177.384 149.795 177.198 149.368 176.524C149.158 176.183 149.135 175.695 149.228 175.37C149.321 175.029 149.422 174.804 149.523 174.564C149.725 174.076 149.958 173.604 150.215 173.139C150.743 172.217 151.372 171.357 152.087 170.567L151.994 171.574C151.054 170.188 150.114 168.84 149.08 167.616C148.039 166.4 146.866 165.331 145.498 164.603C144.139 163.882 142.585 163.503 141.093 163.874C139.616 164.231 138.21 165.284 137.635 166.895Z" fill="#29433F"/>
<path d="M214.27 194.643C209.966 197.904 204.822 200.049 199.476 200.832C194.131 201.614 188.583 201.025 183.525 199.135C188.451 201.8 193.975 203.473 199.585 203.62C205.187 203.768 210.797 202.722 216.073 200.832" fill="#29433F"/>
<path d="M139.966 153.588C137.806 151.922 136.594 149.072 136.85 146.267C137.13 143.471 138.871 140.845 141.396 139.528L141.287 140.109C139.842 138.467 139.135 136.221 139.376 134.075C139.601 131.929 140.759 129.931 142.46 128.707C140.945 130.14 140.028 132.115 139.92 134.121C139.834 136.128 140.549 138.134 141.862 139.613L142.181 139.97L141.761 140.202C139.5 141.434 137.861 143.781 137.503 146.353C137.122 148.917 138.063 151.667 139.966 153.588Z" fill="white"/>
<path d="M153.167 112.85C154.418 111.185 156.532 110.147 158.684 110.186C160.836 110.24 162.965 111.324 164.224 113.121L163.626 113.222C164.348 110.565 166.368 108.303 168.956 107.296C171.559 106.32 174.574 106.646 176.889 108.141L176.399 108.319C176.734 107.32 177.316 106.429 178.031 105.685C178.746 104.941 179.608 104.337 180.533 103.904C181.458 103.462 182.476 103.222 183.486 103.168C184.496 103.113 185.521 103.261 186.454 103.64C185.49 103.354 184.488 103.284 183.509 103.4C182.53 103.516 181.59 103.842 180.72 104.283C179.857 104.732 179.072 105.337 178.435 106.057C177.798 106.777 177.316 107.622 177.029 108.528L176.897 108.931L176.532 108.706C174.379 107.358 171.574 107.103 169.228 108.024C166.874 108.915 164.962 110.976 164.271 113.408L164.076 114.098L163.672 113.509C162.569 111.882 160.673 110.751 158.661 110.627C156.656 110.488 154.574 111.317 153.167 112.85Z" fill="white"/>
<path d="M207.976 99.7205C209.53 99.5191 211.116 99.4649 212.693 99.6275C214.262 99.8057 215.84 100.27 217.215 101.13C218.606 101.998 219.647 103.361 220.199 104.91C220.75 106.436 220.75 108.28 219.833 109.736L219.282 109.225C219.802 108.846 220.455 108.667 221.069 108.698C221.69 108.714 222.273 108.9 222.809 109.155C223.882 109.682 224.705 110.588 225.257 111.588C225.816 112.595 226.127 113.733 226.143 114.88C226.166 116.026 225.894 117.173 225.366 118.18L225.101 117.831C225.785 117.699 226.469 117.955 226.966 118.358C227.471 118.761 227.829 119.318 228.007 119.923C228.349 121.139 228.101 122.37 227.844 123.532C227.984 122.347 228.139 121.108 227.735 120.008C227.541 119.473 227.168 119.001 226.725 118.675C226.275 118.342 225.715 118.18 225.202 118.296L224.721 118.412L224.938 117.947C225.389 116.995 225.591 115.933 225.521 114.888C225.459 113.842 225.179 112.812 224.659 111.913C224.138 111.014 223.408 110.232 222.491 109.806C221.582 109.365 220.502 109.287 219.74 109.822L218.093 110.991L219.188 109.31C219.981 108.094 220.02 106.506 219.546 105.112C219.072 103.71 218.124 102.447 216.904 101.587C215.661 100.72 214.169 100.224 212.654 99.9606C211.108 99.705 209.538 99.6895 207.976 99.7205Z" fill="white"/>
<path d="M178.218 264.474C176.299 260.036 174.379 255.597 172.46 251.159C171.178 248.192 170.036 244.357 172.32 242.065C174.62 239.764 178.513 240.918 181.411 242.398C181.046 239.423 181.574 236.34 182.911 233.652C183.354 232.761 183.913 231.886 184.721 231.297C187.169 229.531 190.556 231.08 193.144 232.645C192.227 226.495 196.182 220.453 201.364 216.998C204.185 215.123 207.573 213.799 210.921 214.294C216.275 215.092 219.826 220.073 222.74 224.628C224.029 226.642 225.319 228.664 226.609 230.678C226.438 227.788 228.645 224.945 231.489 224.395C234.34 223.838 237.456 225.65 238.38 228.385C238.606 226.425 239.888 224.55 241.745 223.861C243.602 223.172 245.956 223.876 246.912 225.604C246.337 223.636 247.891 221.46 249.888 220.948C251.885 220.445 254.045 221.343 255.482 222.823C256.912 224.295 257.72 226.262 258.287 228.238C260.307 225.069 265.086 224.372 268.31 226.324C271.535 228.269 273.159 232.25 272.949 236.007C274.045 234.024 277.114 233.869 278.893 235.279C280.672 236.689 281.325 239.121 281.34 241.383C282.537 239.47 285.591 239.477 287.3 240.957C289.009 242.436 289.584 244.853 289.608 247.107C289.631 249.361 289.204 251.616 289.328 253.87" fill="#558D86"/>
<path d="M188.668 271.632C187.021 267.813 185.366 263.994 183.719 260.175C182.616 257.627 181.637 254.319 183.602 252.352C185.576 250.376 188.933 251.368 191.427 252.638C191.108 250.074 191.567 247.425 192.717 245.109C193.097 244.342 193.579 243.591 194.271 243.087C196.376 241.569 199.29 242.901 201.52 244.241C200.735 238.951 204.131 233.745 208.591 230.771C211.015 229.152 213.928 228.013 216.819 228.447C221.426 229.136 224.48 233.42 226.99 237.34C228.101 239.075 229.212 240.81 230.323 242.545C230.175 240.058 232.071 237.611 234.527 237.138C236.974 236.658 239.663 238.215 240.463 240.577C240.657 238.889 241.76 237.278 243.353 236.681C244.954 236.092 246.974 236.697 247.805 238.184C247.308 236.487 248.645 234.613 250.362 234.179C252.079 233.745 253.944 234.52 255.171 235.79C256.407 237.061 257.098 238.749 257.58 240.453C259.32 237.727 263.431 237.13 266.205 238.804C268.979 240.477 270.377 243.908 270.198 247.131C271.146 245.427 273.788 245.287 275.311 246.503C276.842 247.719 277.401 249.803 277.417 251.755C278.45 250.105 281.076 250.121 282.545 251.391C284.013 252.661 284.511 254.745 284.534 256.682C284.557 258.626 284.184 260.563 284.293 262.499" fill="#3B6B5F"/>
<path d="M293.547 202.931C290.827 208.175 289.196 214.178 284.992 218.33C279.942 223.327 272.389 224.519 265.49 226.239C258.59 227.959 251.084 231.197 248.676 237.866C246.616 243.552 249.165 250.159 253.641 254.249C258.116 258.339 264.145 260.291 270.113 261.368C277.937 262.77 286.22 262.801 293.594 259.85C300.967 256.899 307.276 250.585 308.753 242.793C309.67 237.92 308.698 232.885 309.258 227.959C309.918 222.072 312.723 216.626 313.772 210.801C314.736 205.41 313.321 196.238 307.416 193.798C301.589 191.397 295.831 198.531 293.547 202.931Z" fill="#E09F6D"/>
<path d="M305.575 196.013C306.422 192.566 306.476 188.941 305.746 185.471C306.569 185.324 307.331 185.401 308.131 185.641C308.621 189.019 308.302 192.807 307.424 196.106" fill="#558D86"/>
<path d="M303.547 194.79C304.409 195.107 305.163 195.386 305.963 195.572C306.764 195.773 307.556 195.866 308.473 195.982C307.68 196.478 306.686 196.54 305.785 196.323C304.883 196.099 304.029 195.587 303.547 194.79Z" fill="#29433F"/>
<path d="M301.736 194.247C299.755 197.423 298.745 201.048 297.906 204.65C297.036 208.26 296.29 211.94 294.782 215.402C293.291 218.865 290.913 221.94 287.991 224.334C285.07 226.727 281.55 228.439 277.797 229.09C274.037 229.733 270.26 229.26 266.671 230.035C263.081 230.778 259.794 232.73 257.277 235.387C252.133 240.701 251.418 249.625 255.676 255.806C253.439 252.816 252.374 248.99 252.568 245.241C252.654 243.358 253.089 241.499 253.811 239.756C254.526 238.006 255.591 236.41 256.834 234.985C259.367 232.165 262.794 230.151 266.515 229.338C270.253 228.509 274.052 228.966 277.657 228.315C281.27 227.719 284.689 226.084 287.541 223.776C290.4 221.467 292.7 218.485 294.231 215.147C295.769 211.792 296.577 208.144 297.525 204.55C298.504 200.979 299.608 197.33 301.736 194.247Z" fill="#29433F"/>
<path d="M305.808 195.525C304.363 202.327 304.573 209.391 302.428 216.13C301.884 217.803 301.185 219.43 300.284 220.956C299.382 222.474 298.287 223.884 297.067 225.155C294.611 227.703 291.667 229.709 288.566 231.367C287.012 232.188 285.412 232.916 283.788 233.583C282.164 234.256 280.525 234.837 278.955 235.542C277.386 236.247 275.863 237.068 274.565 238.168C273.275 239.268 272.211 240.624 271.387 242.119C269.755 245.124 268.963 248.595 268.971 252.034C268.971 255.466 269.895 258.975 272.024 261.755C269.748 259.083 268.707 255.528 268.59 252.042C268.504 248.54 269.235 244.993 270.859 241.84C271.675 240.275 272.77 238.819 274.13 237.657C275.49 236.495 277.059 235.627 278.66 234.899C280.26 234.171 281.908 233.575 283.5 232.901C285.101 232.235 286.671 231.499 288.194 230.693C291.247 229.09 294.145 227.138 296.546 224.674C297.743 223.443 298.815 222.087 299.693 220.623C300.563 219.144 301.278 217.579 301.845 215.952C302.972 212.691 303.516 209.252 303.99 205.812C304.51 202.365 304.93 198.895 305.808 195.525Z" fill="#29433F"/>
<path d="M311.697 198.794C312.008 201.575 311.705 204.41 311.068 207.145C310.4 209.872 309.421 212.513 308.333 215.1C306.119 220.213 303.819 225.41 300.346 229.888C298.644 232.119 296.818 234.241 295.295 236.549C294.534 237.704 293.85 238.904 293.298 240.159C292.762 241.422 292.343 242.731 292.086 244.087C291.589 246.79 291.721 249.61 292.412 252.282C292.762 253.622 293.259 254.923 293.897 256.155C294.207 256.775 294.573 257.371 294.961 257.952L295.559 258.812C295.66 258.944 295.769 259.106 295.948 259.106C296.041 259.114 296.072 259.013 296.041 258.936C296.033 258.866 295.917 258.735 295.886 258.866C295.886 258.82 295.94 258.773 295.979 258.82C296.01 258.851 296.033 258.89 296.057 258.928C296.103 259.006 296.064 259.145 295.948 259.137C295.746 259.153 295.621 258.975 295.513 258.851L294.868 258.022C294.456 257.456 294.052 256.875 293.718 256.256C293.019 255.032 292.459 253.738 292.047 252.383C291.263 249.672 291.061 246.79 291.503 243.978C291.931 241.158 293.166 238.509 294.705 236.154C296.243 233.784 298.053 231.631 299.724 229.407C303.182 225.046 305.45 219.911 307.781 214.845C308.931 212.304 309.957 209.717 310.695 207.036C311.457 204.372 311.837 201.591 311.697 198.794Z" fill="#29433F"/>
<path d="M210.657 243.474C210.3 239.919 209.158 236.441 207.339 233.366C208.792 234.853 210.253 236.348 211.706 237.835C211.753 235.883 211.792 233.931 211.838 231.971C212.561 233.799 213.276 235.62 213.998 237.448C214.208 235.434 214.775 233.459 215.669 231.638C215.638 233.435 215.824 235.24 216.221 236.991C216.671 235.48 217.417 234.055 218.404 232.823C218.396 234.21 218.388 235.596 218.381 236.983C219.165 235.294 220.556 233.892 222.25 233.102C220.813 236.232 219.344 239.555 219.701 242.971" fill="#ACCBC0"/>
<path d="M197.713 238.703C193.913 240.275 191.038 243.885 190.37 247.928C189.741 251.739 190.976 255.636 192.771 259.06C194.333 262.034 196.368 264.807 199.026 266.86C204.783 271.291 212.685 271.787 219.896 270.849C224.558 270.237 229.321 269.029 232.988 266.093C238.279 261.848 240.385 254.544 239.748 247.797C239.523 245.411 238.986 243.025 237.813 240.934C236.64 238.842 234.783 237.076 232.499 236.34C226.244 234.318 221.279 239.872 215.319 239.927C212.499 239.95 209.725 238.555 206.967 238.067C203.882 237.51 200.65 237.486 197.713 238.703Z" fill="#D14B2E"/>
<path d="M170.72 262.948C170.72 262.948 189.647 337.8 254.379 326.738C319.11 315.677 313.438 243.521 313.438 243.521L170.72 262.948Z" fill="#ACCBC0"/>
<path d="M167.876 261.159C218.823 260.702 269.701 253.165 318.59 238.842" stroke="#789792" stroke-width="7.61" stroke-miterlimit="10" stroke-linecap="round"/>
<path d="M181.108 269.06C183.587 274.56 186.12 279.975 189.026 285.149C190.502 287.721 192.002 290.269 193.68 292.702C195.327 295.15 197.068 297.528 198.963 299.774C200.821 302.051 202.833 304.197 204.954 306.227C207.052 308.287 209.329 310.146 211.675 311.936C216.407 315.452 221.605 318.365 227.246 320.565C221.255 319.62 215.475 317.211 210.3 313.926C207.689 312.307 205.265 310.402 202.949 308.38C200.665 306.327 198.536 304.096 196.563 301.749C194.628 299.371 192.825 296.885 191.209 294.29C189.616 291.679 188.132 289.015 186.866 286.249C184.302 280.734 182.359 274.963 181.108 269.06Z" fill="white"/>
<path d="M224.34 347.948L225.8 372.333L231.636 339.543L224.34 347.948Z" fill="#29433F"/>
<path d="M223.695 325.499C233.159 317.528 241.908 312.09 246.119 310.626C250.33 309.155 262.11 304.546 262.529 306.854C262.949 309.162 260.214 311.889 256.64 313.988C253.065 316.087 246.329 320.487 246.329 320.487C246.329 320.487 262.529 317.761 272.84 312.307C283.151 306.854 289.46 300.982 291.775 301.401C294.091 301.819 295.14 303.082 295.14 303.082L300.19 298.256C300.19 298.256 301.099 308.357 289.32 317.792C277.541 327.226 268.217 331.812 258.963 334.748C249.709 337.684 234.767 339.156 234.767 339.156L224.355 347.955L223.695 325.499Z" fill="#CA8567"/>
<path d="M294.976 302.989C295.256 303.376 295.388 303.872 295.357 304.36C295.326 304.848 295.155 305.32 294.93 305.754C294.479 306.621 293.819 307.365 293.112 308.024C291.705 309.309 290.268 310.572 288.76 311.742C285.769 314.112 282.575 316.242 279.258 318.148C272.599 321.912 265.381 324.748 257.914 326.266C261.534 325.065 265.078 323.71 268.551 322.207C272.016 320.689 275.412 319.015 278.691 317.141C281.977 315.282 285.147 313.221 288.224 311.021C289.763 309.921 291.262 308.767 292.754 307.59C293.492 307.024 294.176 306.374 294.681 305.599C295.163 304.855 295.458 303.856 294.976 302.989Z" fill="#29433F"/>
<path d="M288.294 318.613C283.228 323.113 277.486 326.862 271.402 329.907C265.303 332.912 258.823 335.228 252.125 336.359C258.597 334.337 264.86 331.874 270.882 328.869C276.919 325.886 282.669 322.385 288.294 318.613Z" fill="#29433F"/>
<path d="M223.695 325.499C215.202 326.072 206.702 326.498 198.202 326.785C189.701 327.095 181.185 327.242 172.67 327.25C164.162 327.257 155.661 327.25 147.153 327.157C138.645 327.079 130.145 326.901 121.637 326.63C130.145 326.305 138.645 326.08 147.153 325.948C155.661 325.801 164.169 325.739 172.67 325.7C181.17 325.716 189.67 325.638 198.171 325.576C206.679 325.499 215.187 325.468 223.695 325.499Z" fill="#29433F"/>
<path d="M225.801 372.332C218.769 372.913 211.729 373.363 204.682 373.688C197.642 374.037 190.587 374.269 183.54 374.447C169.445 374.749 155.327 374.835 141.233 374.106C148.288 373.866 155.327 373.626 162.375 373.448L183.509 372.898C190.556 372.751 197.596 372.58 204.651 372.48C211.69 372.363 218.746 372.317 225.801 372.332Z" fill="#29433F"/>
<path d="M199.67 326.297L199.771 338.032C199.841 341.936 199.942 345.833 200.144 349.721C200.315 353.618 200.579 357.506 200.874 361.395L201.877 373.084C200.906 369.281 200.198 365.415 199.67 361.519C199.126 357.63 198.792 353.711 198.59 349.791C198.419 345.864 198.388 341.936 198.559 338.009C198.722 334.09 199.056 330.17 199.67 326.297Z" fill="#29433F"/>
<path d="M212.926 336.801C214.488 336.801 215.754 335.538 215.754 333.981C215.754 332.424 214.488 331.161 212.926 331.161C211.364 331.161 210.097 332.424 210.097 333.981C210.097 335.538 211.364 336.801 212.926 336.801Z" fill="#29433F"/>
<path d="M121.287 318.008C123.564 317.869 125.848 318.024 128.101 318.365C130.362 318.698 132.584 319.256 134.76 319.953C136.928 320.681 139.041 321.556 141.061 322.633C143.074 323.702 145.001 324.933 146.749 326.398C144.667 325.483 142.623 324.569 140.549 323.725C138.474 322.896 136.392 322.106 134.278 321.417C132.173 320.704 130.028 320.1 127.868 319.534C125.7 318.984 123.509 318.504 121.287 318.008Z" fill="#29433F"/>
<path d="M144.076 324.562C144.395 323.113 144.853 321.734 145.358 320.371C145.863 319.008 146.415 317.675 147.029 316.358C147.635 315.042 148.303 313.756 149.01 312.493C149.725 311.23 150.486 309.983 151.388 308.806C151.069 310.254 150.619 311.633 150.114 312.997C149.608 314.36 149.057 315.692 148.443 317.009C147.837 318.326 147.169 319.612 146.462 320.875C145.739 322.137 144.978 323.384 144.076 324.562Z" fill="#29433F"/>
</g>
</svg>
