<svg width="59" height="59" viewBox="0 0 59 59" fill="none" xmlns="http://www.w3.org/2000/svg">
<rect width="59" height="59" rx="5" fill="#F0613D"/>
<path d="M46 46L35 34.6667M13 25.2222C13 26.9586 13.3319 28.678 13.9769 30.2821C14.6218 31.8863 15.5671 33.3439 16.7588 34.5717C17.9505 35.7995 19.3652 36.7735 20.9222 37.438C22.4792 38.1024 24.148 38.4444 25.8333 38.4444C27.5186 38.4444 29.1874 38.1024 30.7444 37.438C32.3015 36.7735 33.7162 35.7995 34.9079 34.5717C36.0996 33.3439 37.0449 31.8863 37.6898 30.2821C38.3347 28.678 38.6667 26.9586 38.6667 25.2222C38.6667 23.4859 38.3347 21.7665 37.6898 20.1623C37.0449 18.5581 36.0996 17.1005 34.9079 15.8727C33.7162 14.6449 32.3015 13.671 30.7444 13.0065C29.1874 12.342 27.5186 12 25.8333 12C24.148 12 22.4792 12.342 20.9222 13.0065C19.3652 13.671 17.9505 14.6449 16.7588 15.8727C15.5671 17.1005 14.6218 18.5581 13.9769 20.1623C13.3319 21.7665 13 23.4859 13 25.2222Z" stroke="white" stroke-width="2" stroke-linecap="round" stroke-linejoin="round"/>
</svg>
