<svg width="28" height="28" viewBox="0 0 28 28" fill="none" xmlns="http://www.w3.org/2000/svg">
<path d="M5.77899 13.5039H3.32292C1.80919 13.5039 0.577637 14.7355 0.577637 16.2491V25.2313C0.577637 26.7451 1.80919 27.9765 3.32292 27.9765H5.77904C7.29281 27.9765 8.52432 26.7451 8.52432 25.2313V16.2491C8.52427 14.7355 7.29277 13.5039 5.77899 13.5039ZM6.50143 25.2313C6.50143 25.6302 6.17799 25.9537 5.77899 25.9537H3.32292C2.92392 25.9537 2.60048 25.6302 2.60048 25.2313V16.2491C2.60048 15.8502 2.92392 15.5267 3.32292 15.5267H5.77904C6.17803 15.5267 6.50148 15.8502 6.50148 16.2491L6.50143 25.2313Z" fill="black"/>
<path d="M5.77892 28.0002H3.32285C1.79608 28.0002 0.553955 26.7581 0.553955 25.2314V16.2493C0.553955 14.7226 1.79608 13.4805 3.32285 13.4805H5.77896C7.30573 13.4805 8.54786 14.7226 8.54786 16.2493V25.2315C8.54781 26.7582 7.30573 28.0002 5.77892 28.0002ZM3.32285 13.5277C1.8221 13.5277 0.601174 14.7486 0.601174 16.2493V25.2315C0.601174 26.7322 1.8221 27.9531 3.32285 27.9531H5.77896C7.27971 27.9531 8.50064 26.7322 8.50064 25.2315V16.2493C8.50064 14.7486 7.27971 13.5277 5.77896 13.5277H3.32285ZM5.77892 25.9774H3.32285C2.91148 25.9774 2.5768 25.6428 2.5768 25.2314V16.2493C2.5768 15.8379 2.91148 15.5033 3.32285 15.5033H5.77896C6.19033 15.5033 6.52502 15.8379 6.52502 16.2493V25.2315C6.52497 25.6428 6.19033 25.9774 5.77892 25.9774ZM3.32285 15.5505C2.9375 15.5505 2.62401 15.864 2.62401 16.2493V25.2315C2.62401 25.6168 2.9375 25.9302 3.32285 25.9302H5.77896C6.16431 25.9302 6.4778 25.6168 6.4778 25.2315V16.2493C6.4778 15.864 6.16431 15.5505 5.77896 15.5505H3.32285Z" fill="black"/>
<path d="M15.228 27.9761C16.7418 27.9761 17.9733 26.7447 17.9733 25.2309V2.76872C17.9733 1.25494 16.7418 0.0234375 15.228 0.0234375H12.7719C11.2581 0.0234375 10.0266 1.25499 10.0266 2.76872V25.2309C10.0266 26.7447 11.2582 27.9762 12.7719 27.9762L15.228 27.9761ZM12.0495 25.2309V2.76872C12.0495 2.36972 12.3729 2.04628 12.7719 2.04628H15.228C15.627 2.04628 15.9505 2.36972 15.9505 2.76872V25.2309C15.9505 25.6299 15.627 25.9533 15.228 25.9533H12.7719C12.3729 25.9533 12.0495 25.6299 12.0495 25.2309Z" fill="black"/>
<path d="M15.2279 27.9999H12.7718C11.2451 27.9999 10.0029 26.7578 10.0029 25.2311V2.76889C10.0029 1.24213 11.2451 0 12.7718 0H15.2279C16.7547 0 17.9969 1.24213 17.9969 2.76889V25.2311C17.9969 26.7578 16.7547 27.9999 15.2279 27.9999ZM12.7718 0.0472185C11.2711 0.0472185 10.0501 1.26815 10.0501 2.76889V25.2311C10.0501 26.7318 11.2711 27.9527 12.7718 27.9527H15.2279C16.7287 27.9527 17.9497 26.7319 17.9497 25.2311V2.76889C17.9497 1.26815 16.7287 0.0472185 15.2279 0.0472185H12.7718ZM15.2279 25.9771H12.7718C12.3605 25.9771 12.0258 25.6424 12.0258 25.2311V2.76889C12.0258 2.35752 12.3605 2.02284 12.7718 2.02284H15.2279C15.6394 2.02284 15.974 2.35752 15.974 2.76889V25.2311C15.974 25.6425 15.6394 25.9771 15.2279 25.9771ZM12.7718 2.07006C12.3865 2.07006 12.073 2.38354 12.073 2.76889V25.2311C12.073 25.6164 12.3865 25.9299 12.7718 25.9299H15.2279C15.6133 25.9299 15.9268 25.6164 15.9268 25.2311V2.76889C15.9268 2.38354 15.6133 2.07006 15.2279 2.07006H12.7718Z" fill="black"/>
<path d="M24.6771 27.9762C26.1909 27.9762 27.4225 26.7447 27.4225 25.231V9.8195C27.4225 8.30572 26.1909 7.07422 24.6771 7.07422H22.2211C20.7074 7.07422 19.4758 8.30577 19.4758 9.8195V25.231C19.4758 26.7447 20.7074 27.9763 22.2211 27.9763L24.6771 27.9762ZM21.4987 25.231V9.8195C21.4987 9.42051 21.8221 9.09706 22.2211 9.09706H24.6772C25.0762 9.09706 25.3997 9.42051 25.3997 9.8195V25.231C25.3997 25.6299 25.0762 25.9534 24.6772 25.9534H22.2211C21.8221 25.9534 21.4987 25.63 21.4987 25.231Z" fill="black"/>
<path d="M22.221 28.0001C20.6943 28.0001 19.4521 26.7579 19.4521 25.2311V9.81967C19.4521 8.29291 20.6943 7.05078 22.221 7.05078H24.6771C26.2039 7.05078 27.4461 8.29291 27.4461 9.81967V25.2311C27.4461 26.7578 26.2039 28 24.6771 28L22.221 28.0001ZM22.221 7.098C20.7203 7.098 19.4994 8.31893 19.4994 9.81967V25.2311C19.4994 26.7319 20.7202 27.9528 22.221 27.9528L24.6771 27.9528C26.1779 27.9528 27.3988 26.7319 27.3988 25.2311V9.81967C27.3988 8.31893 26.1779 7.098 24.6771 7.098H22.221ZM24.6771 25.9772H22.221C21.8096 25.9771 21.475 25.6424 21.475 25.2311V9.81967C21.475 9.40831 21.8096 9.07362 22.221 9.07362H24.6771C25.0885 9.07362 25.4232 9.40831 25.4232 9.81967V25.2311C25.4232 25.6426 25.0885 25.9772 24.6771 25.9772ZM22.221 9.12084C21.8357 9.12084 21.5222 9.43432 21.5222 9.81967V25.2311C21.5222 25.6164 21.8357 25.9299 22.221 25.93H24.6771C25.0625 25.93 25.376 25.6165 25.376 25.2311V9.81967C25.376 9.43432 25.0625 9.12084 24.6771 9.12084H22.221Z" fill="black"/>
</svg>
