<svg width="35" height="35" viewBox="0 0 35 35" fill="none" xmlns="http://www.w3.org/2000/svg">
<path d="M18.9992 2.9165C20.6398 2.92088 21.4725 2.92963 22.1915 2.95005L22.4744 2.96025C22.8011 2.97192 23.1233 2.9865 23.5127 3.004C25.0644 3.07692 26.1231 3.32192 27.0521 3.68213C28.0146 4.05255 28.8254 4.55421 29.6363 5.36359C30.3778 6.0926 30.9516 6.97445 31.3177 7.94775C31.6779 8.87671 31.9229 9.93546 31.9958 11.4886C32.0133 11.8765 32.0279 12.1988 32.0396 12.5269L32.0483 12.8098C32.0702 13.5273 32.079 14.36 32.0819 16.0007L32.0833 17.0886V18.999C32.0869 20.0627 32.0757 21.1264 32.0498 22.1898L32.0411 22.4728C32.0294 22.8009 32.0148 23.1232 31.9973 23.5111C31.9244 25.0642 31.6765 26.1215 31.3177 27.0519C30.9527 28.0258 30.3787 28.9078 29.6363 29.6361C28.907 30.3774 28.0253 30.9511 27.0521 31.3175C26.1231 31.6778 25.0644 31.9228 23.5127 31.9957C23.1667 32.012 22.8206 32.0266 22.4744 32.0394L22.1915 32.0482C21.4725 32.0686 20.6398 32.0788 18.9992 32.0817L17.9113 32.0832H16.0023C14.9381 32.0868 13.8739 32.0757 12.81 32.0496L12.5271 32.0409C12.1809 32.0278 11.8348 32.0127 11.4888 31.9957C9.93709 31.9228 8.87834 31.6778 7.94792 31.3175C6.97473 30.9521 6.09324 30.3782 5.36522 29.6361C4.62299 28.9073 4.04867 28.0254 3.6823 27.0519C3.32209 26.123 3.07709 25.0642 3.00417 23.5111C2.98793 23.1651 2.97334 22.8189 2.96042 22.4728L2.95313 22.1898C2.92626 21.1264 2.9141 20.0627 2.91667 18.999V16.0007C2.9126 14.937 2.9233 13.8733 2.94876 12.8098L2.95897 12.5269C2.97063 12.1988 2.98522 11.8765 3.00272 11.4886C3.07563 9.93546 3.32063 8.87817 3.68084 7.94775C4.04705 6.97345 4.62252 6.09133 5.36667 5.36359C6.09452 4.62199 6.97543 4.04815 7.94792 3.68213C8.87834 3.32192 9.93563 3.07692 11.4888 3.004C11.8767 2.9865 12.2004 2.97192 12.5271 2.96025L12.81 2.9515C13.8734 2.92559 14.9371 2.91441 16.0008 2.91796L18.9992 2.9165ZM17.5 10.2082C15.5661 10.2082 13.7115 10.9764 12.344 12.3439C10.9766 13.7113 10.2083 15.566 10.2083 17.4998C10.2083 19.4337 10.9766 21.2884 12.344 22.6558C13.7115 24.0233 15.5661 24.7915 17.5 24.7915C19.4339 24.7915 21.2885 24.0233 22.656 22.6558C24.0234 21.2884 24.7917 19.4337 24.7917 17.4998C24.7917 15.566 24.0234 13.7113 22.656 12.3439C21.2885 10.9764 19.4339 10.2082 17.5 10.2082ZM17.5 13.1248C18.0745 13.1247 18.6435 13.2378 19.1743 13.4576C19.7051 13.6774 20.1875 13.9995 20.5938 14.4057C21.0001 14.8119 21.3225 15.2942 21.5424 15.8249C21.7624 16.3557 21.8756 16.9246 21.8757 17.4991C21.8758 18.0736 21.7628 18.6426 21.543 19.1734C21.3232 19.7042 21.001 20.1866 20.5948 20.5929C20.1887 20.9992 19.7064 21.3216 19.1757 21.5415C18.6449 21.7615 18.076 21.8747 17.5015 21.8748C16.3411 21.8748 15.2283 21.4139 14.4079 20.5934C13.5874 19.773 13.1265 18.6602 13.1265 17.4998C13.1265 16.3395 13.5874 15.2267 14.4079 14.4062C15.2283 13.5858 16.3411 13.1248 17.5015 13.1248M25.1577 8.02067C24.6742 8.02067 24.2106 8.21273 23.8687 8.55459C23.5269 8.89645 23.3348 9.36012 23.3348 9.84359C23.3348 10.3271 23.5269 10.7907 23.8687 11.1326C24.2106 11.4744 24.6742 11.6665 25.1577 11.6665C25.6412 11.6665 26.1049 11.4744 26.4467 11.1326C26.7886 10.7907 26.9806 10.3271 26.9806 9.84359C26.9806 9.36012 26.7886 8.89645 26.4467 8.55459C26.1049 8.21273 25.6412 8.02067 25.1577 8.02067Z" fill="#E76F51"/>
</svg>
