<svg width="27" height="61" viewBox="0 0 27 61" fill="none" xmlns="http://www.w3.org/2000/svg">
<path d="M13.5344 53.1002L23.6697 34.696C24.0217 34.0567 24.4365 33.7217 24.914 33.6911C25.3914 33.6648 25.8303 34.0129 26.2306 34.7354C26.6164 35.4579 26.8118 36.233 26.8166 37.0606C26.8214 37.8882 26.6261 38.6632 26.2306 39.3858L15.5817 58.7227C15.2658 59.2919 14.9427 59.6947 14.6123 59.9312C14.2844 60.1589 13.9251 60.2728 13.5344 60.2728C13.1438 60.2728 12.7845 60.1589 12.4565 59.9312C12.1286 59.7035 11.8066 59.3007 11.4907 58.7227L0.769524 39.3858C0.383695 38.7727 0.188366 38.0239 0.183543 37.1394C0.176309 36.2637 0.371637 35.4623 0.769524 34.7354C1.15535 34.0348 1.58218 33.7064 2.04999 33.7502C2.51781 33.794 2.94464 34.1224 3.33046 34.7354L13.5344 53.1002ZM13.5344 20.259L23.6697 1.85483C24.0217 1.21552 24.4365 0.880545 24.914 0.849894C25.3914 0.823621 25.8303 1.17173 26.2306 1.89424C26.6164 2.61675 26.8118 3.3918 26.8166 4.2194C26.8214 5.047 26.6261 5.82205 26.2306 6.54456L15.5817 25.8815C15.2658 26.4507 14.9427 26.8535 14.6123 27.09C14.2844 27.3177 13.9251 27.4316 13.5344 27.4316C13.1438 27.4316 12.7845 27.3177 12.4565 27.09C12.1286 26.8623 11.8066 26.4595 11.4907 25.8815L0.769524 6.54456C0.383695 5.93152 0.188366 5.18274 0.183543 4.29822C0.176309 3.42245 0.371637 2.62113 0.769524 1.89424C1.15535 1.19363 1.58218 0.865224 2.04999 0.909012C2.51781 0.952801 2.94464 1.2812 3.33046 1.89424L13.5344 20.259Z" fill="#E76F51"/>
</svg>
