<svg width="24" height="23" viewBox="0 0 24 23" fill="none" xmlns="http://www.w3.org/2000/svg">
<path d="M8.4375 4.25V0.75C8.4375 0.575952 8.49677 0.409032 8.60225 0.285961C8.70774 0.16289 8.85082 0.09375 9 0.09375C9.14919 0.09375 9.29226 0.16289 9.39775 0.285961C9.50324 0.409032 9.5625 0.575952 9.5625 0.75V4.25C9.5625 4.42405 9.50324 4.59097 9.39775 4.71404C9.29226 4.83711 9.14919 4.90625 9 4.90625C8.85082 4.90625 8.70774 4.83711 8.60225 4.71404C8.49677 4.59097 8.4375 4.42405 8.4375 4.25ZM12 4.90625C12.1492 4.90625 12.2923 4.83711 12.3978 4.71404C12.5032 4.59097 12.5625 4.42405 12.5625 4.25V0.75C12.5625 0.575952 12.5032 0.409032 12.3978 0.285961C12.2923 0.16289 12.1492 0.09375 12 0.09375C11.8508 0.09375 11.7077 0.16289 11.6023 0.285961C11.4968 0.409032 11.4375 0.575952 11.4375 0.75V4.25C11.4375 4.42405 11.4968 4.59097 11.6023 4.71404C11.7077 4.83711 11.8508 4.90625 12 4.90625ZM15 4.90625C15.1492 4.90625 15.2923 4.83711 15.3978 4.71404C15.5032 4.59097 15.5625 4.42405 15.5625 4.25V0.75C15.5625 0.575952 15.5032 0.409032 15.3978 0.285961C15.2923 0.16289 15.1492 0.09375 15 0.09375C14.8508 0.09375 14.7077 0.16289 14.6023 0.285961C14.4968 0.409032 14.4375 0.575952 14.4375 0.75V4.25C14.4375 4.42405 14.4968 4.59097 14.6023 4.71404C14.7077 4.83711 14.8508 4.90625 15 4.90625ZM23.5875 10.025L20.8125 12.4531V19.125C20.8125 19.9952 20.5162 20.8298 19.9887 21.4452C19.4613 22.0605 18.7459 22.4062 18 22.4062H6C5.25408 22.4062 4.53871 22.0605 4.01126 21.4452C3.48382 20.8298 3.1875 19.9952 3.1875 19.125V12.4531L0.412502 10.025C0.293155 9.92057 0.214254 9.76511 0.193156 9.59281C0.172058 9.42051 0.210492 9.24549 0.300002 9.10625C0.389513 8.96701 0.522768 8.87496 0.670453 8.85035C0.818138 8.82573 0.968155 8.87057 1.0875 8.975L3.1875 10.8125V7.75C3.1875 7.57595 3.24677 7.40903 3.35225 7.28596C3.45774 7.16289 3.60082 7.09375 3.75 7.09375H20.25C20.3992 7.09375 20.5423 7.16289 20.6478 7.28596C20.7532 7.40903 20.8125 7.57595 20.8125 7.75V10.8125L22.9125 8.975C23.0318 8.87057 23.1819 8.82573 23.3296 8.85035C23.4772 8.87496 23.6105 8.96701 23.7 9.10625C23.7895 9.24549 23.8279 9.42051 23.8068 9.59281C23.7858 9.76511 23.7069 9.92057 23.5875 10.025ZM19.6875 8.40625H4.3125V19.125C4.3125 19.6471 4.49029 20.1479 4.80676 20.5171C5.12323 20.8863 5.55245 21.0938 6 21.0938H18C18.4476 21.0938 18.8768 20.8863 19.1932 20.5171C19.5097 20.1479 19.6875 19.6471 19.6875 19.125V8.40625Z" fill="black"/>
</svg>
