<svg width="60" height="60" viewBox="0 0 60 60" fill="none" xmlns="http://www.w3.org/2000/svg">
<path d="M32.29 21.2146L43.7358 9.76894C45.3373 8.16751 47.9338 8.16751 49.535 9.76894C51.1365 11.3704 51.1365 13.9668 49.535 15.5682L46.0183 19.0849L44.4143 20.689" stroke="#264653" stroke-width="4" stroke-linecap="round"/>
<path d="M7.31494 48.4365H52.6852" stroke="#264653" stroke-width="4" stroke-linecap="round"/>
<path d="M50.7874 21.2148H9.21264C8.16457 21.2148 7.31494 22.0645 7.31494 23.1125V25.7517C7.31494 38.2805 17.4714 48.437 30.0002 48.437C42.5287 48.437 52.6852 38.2805 52.6852 25.7517V23.1125C52.6852 22.0645 51.8357 21.2148 50.7874 21.2148Z" stroke="#264653" stroke-width="4" stroke-linecap="round"/>
<path d="M32.29 21.2146L43.7358 9.76894C45.3373 8.16751 47.9338 8.16751 49.535 9.76894C51.1365 11.3704 51.1365 13.9668 49.535 15.5682L46.0183 19.0849L44.4143 20.689" stroke="#264653" stroke-width="4" stroke-linecap="round"/>
<path d="M7.31494 48.4365H52.6852" stroke="#264653" stroke-width="4" stroke-linecap="round"/>
<path d="M50.7874 21.2148H9.21264C8.16457 21.2148 7.31494 22.0645 7.31494 23.1125V25.7517C7.31494 38.2805 17.4714 48.437 30.0002 48.437C42.5287 48.437 52.6852 38.2805 52.6852 25.7517V23.1125C52.6852 22.0645 51.8357 21.2148 50.7874 21.2148Z" stroke="#264653" stroke-width="4" stroke-linecap="round"/>
</svg>
