<svg width="25" height="26" viewBox="0 0 25 26" fill="none" xmlns="http://www.w3.org/2000/svg">
<g clip-path="url(#clip0_43_161)">
<path d="M20.0342 11.7792L20.586 11.2274L18.9307 9.57214L15.8985 6.53992L14.2432 4.88464L13.6915 5.4364L12.5879 6.53992L2.86139 16.2665C2.35357 16.7743 1.98248 17.4042 1.7774 18.0926L0.0488854 23.9716C-0.073185 24.3817 0.0391197 24.826 0.346737 25.1288C0.654354 25.4315 1.09381 25.5438 1.50396 25.4266L7.37799 23.6981C8.06646 23.493 8.69635 23.1219 9.20416 22.6141L18.9307 12.8876L20.0342 11.7792ZM7.81256 20.0018L7.36822 21.1102C7.17291 21.2616 6.95318 21.3739 6.71881 21.4471L2.90045 22.5702L4.02349 18.7567C4.09185 18.5175 4.20904 18.2977 4.36041 18.1073L5.46881 17.663V19.2255C5.46881 19.6551 5.82037 20.0067 6.25006 20.0067H7.81256V20.0018ZM17.71 1.41296L17.0069 2.12097L15.9034 3.22449L15.3467 3.77624L17.002 5.43152L20.0342 8.46375L21.6895 10.119L22.2413 9.56726L23.3448 8.46375L24.0528 7.75574C25.2735 6.53503 25.2735 4.55749 24.0528 3.33679L22.1338 1.41296C20.9131 0.192261 18.9356 0.192261 17.7149 1.41296H17.71ZM15.3956 9.61609L8.36432 16.6473C8.06158 16.9501 7.56353 16.9501 7.2608 16.6473C6.95806 16.3446 6.95806 15.8466 7.2608 15.5438L14.2921 8.51257C14.5948 8.20984 15.0928 8.20984 15.3956 8.51257C15.6983 8.81531 15.6983 9.31335 15.3956 9.61609Z" fill="white"/>
</g>
<defs>
<clipPath id="clip0_43_161">
<rect width="25" height="25" fill="white" transform="translate(0 0.5)"/>
</clipPath>
</defs>
</svg>
