<svg width="30" height="31" viewBox="0 0 30 31" fill="none" xmlns="http://www.w3.org/2000/svg">
<path d="M24.375 12.6875C24.375 15.377 23.502 17.8613 22.0312 19.877L29.4492 27.3008C30.1816 28.0332 30.1816 29.2227 29.4492 29.9551C28.7168 30.6875 27.5273 30.6875 26.7949 29.9551L19.377 22.5312C17.3613 24.0078 14.877 24.875 12.1875 24.875C5.45508 24.875 0 19.4199 0 12.6875C0 5.95508 5.45508 0.5 12.1875 0.5C18.9199 0.5 24.375 5.95508 24.375 12.6875ZM12.1875 21.125C13.2955 21.125 14.3927 20.9068 15.4164 20.4827C16.4401 20.0587 17.3702 19.4372 18.1537 18.6537C18.9372 17.8702 19.5587 16.9401 19.9827 15.9164C20.4068 14.8927 20.625 13.7955 20.625 12.6875C20.625 11.5795 20.4068 10.4823 19.9827 9.45861C19.5587 8.43492 18.9372 7.50478 18.1537 6.72129C17.3702 5.93779 16.4401 5.31629 15.4164 4.89227C14.3927 4.46824 13.2955 4.25 12.1875 4.25C11.0795 4.25 9.98229 4.46824 8.95861 4.89227C7.93492 5.31629 7.00478 5.93779 6.22129 6.72129C5.43779 7.50478 4.81629 8.43492 4.39227 9.45861C3.96824 10.4823 3.75 11.5795 3.75 12.6875C3.75 13.7955 3.96824 14.8927 4.39227 15.9164C4.81629 16.9401 5.43779 17.8702 6.22129 18.6537C7.00478 19.4372 7.93492 20.0587 8.95861 20.4827C9.98229 20.9068 11.0795 21.125 12.1875 21.125Z" fill="black"/>
</svg>
