<svg width="50" height="50" viewBox="0 0 50 50" fill="none" xmlns="http://www.w3.org/2000/svg">
<path d="M25 50C38.8071 50 50 38.8071 50 25C50 11.1929 38.8071 0 25 0C11.1929 0 0 11.1929 0 25C0 38.8071 11.1929 50 25 50Z" fill="#0077B5"/>
<path fill-rule="evenodd" clip-rule="evenodd" d="M18.4683 12.8549C18.4683 14.4113 17.2833 15.6708 15.4302 15.6708C13.6492 15.6708 12.4641 14.4113 12.5008 12.8549C12.4641 11.2229 13.6491 10 15.4657 10C17.2833 10 18.4328 11.2229 18.4683 12.8549ZM12.6498 36.0239V17.8953H18.2838V36.0226L12.6498 36.0239Z" fill="white"/>
<path fill-rule="evenodd" clip-rule="evenodd" d="M22.7989 23.6806C22.7989 21.4195 22.7244 19.4917 22.6499 17.8976H27.5437L27.8038 20.3811H27.915C28.6565 19.2316 30.5097 17.4907 33.5124 17.4907C37.2188 17.4907 39.9992 19.9376 39.9992 25.2736V36.0261H34.365V25.9796C34.365 23.6428 33.5503 22.0497 31.5114 22.0497C29.9539 22.0497 29.0278 23.1247 28.6577 24.162C28.5087 24.5333 28.4353 25.0513 28.4353 25.5716V36.0261H22.8012V23.6806H22.7989Z" fill="white"/>
</svg>
