<svg width="50" height="50" viewBox="0 0 50 50" fill="none" xmlns="http://www.w3.org/2000/svg">
<path fill-rule="evenodd" clip-rule="evenodd" d="M25.0015 0C11.1954 0 0 11.1924 0 25.0015C0 35.2355 6.1563 44.0319 14.9674 47.8979C14.8968 46.1545 14.9556 44.0554 15.3996 42.1562C15.8817 40.1276 18.6158 28.5353 18.6158 28.5353C18.6158 28.5353 17.8191 26.9389 17.8191 24.5781C17.8191 20.8738 19.9682 18.1073 22.6407 18.1073C24.9133 18.1073 26.0128 19.8154 26.0128 21.8616C26.0128 24.1459 24.5546 27.5651 23.8049 30.7315C23.1787 33.3862 25.1338 35.5471 27.7503 35.5471C32.4866 35.5471 35.6765 29.4643 35.6765 22.2555C35.6765 16.7784 31.9868 12.6771 25.2749 12.6771C17.6927 12.6771 12.9682 18.3307 12.9682 24.6457C12.9682 26.8272 13.6091 28.3619 14.6146 29.5496C15.0791 30.0994 15.1408 30.3169 14.9733 30.9461C14.8557 31.4018 14.5793 32.5131 14.4646 32.9511C14.2971 33.5832 13.7855 33.8125 13.2152 33.5773C9.71954 32.1515 8.09374 28.3266 8.09374 24.0254C8.09374 16.9254 14.0824 8.40537 25.9599 8.40537C35.506 8.40537 41.7887 15.3172 41.7887 22.7289C41.7887 32.5366 36.338 39.863 28.2972 39.863C25.6012 39.863 23.0611 38.4048 22.1909 36.7496C22.1909 36.7496 20.7385 42.509 20.4328 43.6203C19.9036 45.5459 18.8657 47.4746 17.9161 48.9739C20.1652 49.6384 22.5407 50 25.0015 50C38.8075 50 50 38.8075 50 25.0015C50 11.1924 38.8075 0 25.0015 0Z" fill="#CC2127"/>
</svg>
