<svg width="19" height="15" viewBox="0 0 19 15" fill="none" xmlns="http://www.w3.org/2000/svg">
<g clip-path="url(#clip0_380_1450)">
<path fill-rule="evenodd" clip-rule="evenodd" d="M7.17662 2.99992V1.66659H12.1178V2.99992H7.17662ZM5.52957 2.99992V1.22214C5.52957 0.986393 5.64525 0.7603 5.85117 0.593601C6.0571 0.426902 6.33639 0.333252 6.6276 0.333252L12.6668 0.333252C12.958 0.333252 13.2373 0.426902 13.4433 0.593601C13.6492 0.7603 13.7649 0.986393 13.7649 1.22214V2.99992H16.51C16.7284 2.99992 16.9378 3.07016 17.0923 3.19518C17.2467 3.3202 17.3335 3.48977 17.3335 3.66659C17.3335 3.8434 17.2467 4.01297 17.0923 4.13799C16.9378 4.26301 16.7284 4.33325 16.51 4.33325H16.1092L15.2933 12.9137C15.251 13.3603 15.002 13.7775 14.596 14.0819C14.1901 14.3863 13.6572 14.5554 13.1038 14.5555H6.19059C5.63726 14.5554 5.10434 14.3863 4.6984 14.0819C4.29246 13.7775 4.04342 13.3603 4.00109 12.9137L3.18525 4.33325H2.78447C2.56605 4.33325 2.35659 4.26301 2.20214 4.13799C2.0477 4.01297 1.96094 3.8434 1.96094 3.66659C1.96094 3.48977 2.0477 3.3202 2.20214 3.19518C2.35659 3.07016 2.56605 2.99992 2.78447 2.99992H5.52957ZM4.8378 4.33325H14.4566L13.6507 12.8115C13.6402 12.9231 13.578 13.0274 13.4766 13.1035C13.3753 13.1797 13.2421 13.222 13.1038 13.2221H6.19059C6.0523 13.222 5.91917 13.1797 5.8178 13.1035C5.71642 13.0274 5.65427 12.9231 5.64376 12.8115L4.8378 4.33325Z" fill="white"/>
</g>
<defs>
<clipPath id="clip0_380_1450">
<rect width="17.5686" height="14.2222" fill="white" transform="translate(0.862793 0.333252)"/>
</clipPath>
</defs>
</svg>
