<svg width="61" height="61" viewBox="0 0 61 61" fill="none" xmlns="http://www.w3.org/2000/svg">
<rect width="61" height="61" rx="5" fill="#264653"/>
<rect x="11" y="10" width="40" height="41" rx="5" fill="#264653"/>
<path d="M47.5848 18.4964C41.8504 14.5765 36.4305 12.6362 31.0161 12.5645C25.5333 12.4952 20.125 14.2219 14.4797 17.8521C13.9268 18.2044 13.5306 18.7648 13.3762 19.413C13.2218 20.0613 13.3214 20.7457 13.6538 21.3195L28.8558 47.8669C29.0737 48.2519 29.3865 48.5714 29.7628 48.7935C30.1392 49.0156 30.5658 49.1324 31 49.1323H31.0125C31.4446 49.1345 31.8697 49.0207 32.2456 48.8025C32.6216 48.5843 32.9354 48.2691 33.1558 47.8882L48.3406 21.947C48.6721 21.3827 48.7785 20.7091 48.6377 20.0663C48.497 19.4236 48.1198 18.8613 47.5848 18.4964ZM46.197 20.6284L31.0118 46.5698L15.8084 20.0228C20.9303 16.7289 25.8011 15.1251 30.6881 15.1251C30.7867 15.1251 30.8853 15.1257 30.9839 15.127C35.9006 15.192 40.8771 16.9916 46.1978 20.6284H46.197Z" fill="white"/>
<path d="M28.4669 28.5371C28.3927 28.1045 28.195 27.7042 27.8988 27.3868C27.6027 27.0693 27.2213 26.8491 26.803 26.7538C26.3847 26.6585 25.9483 26.6925 25.5488 26.8515C25.1494 27.0105 24.8049 27.2874 24.559 27.6471C24.313 28.0067 24.1767 28.4331 24.1672 28.8722C24.1576 29.3113 24.2754 29.7434 24.5054 30.114C24.7355 30.4845 25.0676 30.7768 25.4598 30.9538C25.8519 31.1309 26.2865 31.1847 26.7085 31.1086C27.2744 31.0066 27.7775 30.6783 28.1072 30.1961C28.437 29.7138 28.5664 29.1171 28.4669 28.5371Z" fill="white"/>
<path d="M36.4524 34.4082C37.3605 33.6097 37.4651 32.2077 36.6861 31.2769C35.907 30.3461 34.5392 30.2389 33.6311 31.0375C32.723 31.836 32.6184 33.238 33.3975 34.1688C34.1766 35.0996 35.5443 35.2068 36.4524 34.4082Z" fill="white"/>
<path d="M27.6997 37.2522L29.3002 35.2837L33.0502 38.4868L31.4496 40.4555L27.6997 37.2522ZM30.561 25.4587L35.561 23.5369L36.4388 25.9362L31.4388 27.8581L30.561 25.4587Z" fill="white"/>
<path d="M20.4141 24.5405C23.0147 22.8681 27.0192 20.8913 31.4155 20.8913C31.4797 20.8913 31.5441 20.8917 31.6087 20.8926C35.2709 20.9406 38.6304 22.0937 42.1812 24.5211L43.5683 22.3892C39.5976 19.6751 35.8076 18.3853 31.6409 18.3302C26.5587 18.2658 22.009 20.4902 19.0859 22.3698L20.4141 24.5405Z" fill="white"/>
</svg>
