<svg width="18" height="24" viewBox="0 0 18 24" fill="none" xmlns="http://www.w3.org/2000/svg">
<path d="M12.389 11.6842C14.541 10.0318 15.999 6.85663 15.999 3.21053C15.999 2.80016 15.98 2.39705 15.945 2H2.054C2.01777 2.40201 1.99974 2.80613 2 3.21053C2 6.85663 3.457 10.0318 5.609 11.6842C3.457 13.3366 2 16.5118 2 20.1579C2 20.5683 2.019 20.9714 2.054 21.3684H15.945C15.981 20.9714 15.999 20.5683 15.999 20.1579C15.999 16.5118 14.541 13.3366 12.389 11.6842ZM3.499 20.1579C3.499 16.6219 4.752 13.6247 6.999 12.6357V10.7327C4.752 9.74374 3.499 6.74526 3.499 3.21053H14.499C14.499 6.74647 13.246 9.74374 10.999 10.7327V12.6357C13.246 13.6247 14.499 16.6232 14.499 20.1579H3.499ZM10.681 14.6645C9.561 13.8958 9.5 12.8984 9.499 12.2931V11.0777C9.499 10.4725 9.558 9.47137 10.683 8.70147C11.285 8.279 11.805 7.63621 12.199 6.84089H5.799C6.194 7.63621 6.715 8.279 7.317 8.70268C8.437 9.47137 8.498 10.4688 8.499 11.0741V12.2895C8.499 12.8947 8.44 13.8958 7.315 14.6657C6.18 15.4635 5.335 17.0432 5.079 18.9474H12.918C12.662 17.042 11.816 15.4623 10.68 14.6645H10.681Z" fill="#E76F51"/>
</svg>
