<svg width="64" height="64" viewBox="0 0 64 64" fill="none" xmlns="http://www.w3.org/2000/svg">
<rect width="64" height="64" rx="32" fill="white"/>
<path d="M32 57C45.8071 57 57 45.8071 57 32C57 18.1929 45.8071 7 32 7C18.1929 7 7 18.1929 7 32C7 45.8071 18.1929 57 32 57Z" fill="url(#paint0_linear_260_100)"/>
<path d="M32 19.7027C36.0051 19.7027 36.4796 19.718 38.0613 19.7901C39.5238 19.8569 40.318 20.1012 40.8466 20.3066C41.5467 20.5787 42.0464 20.9037 42.5713 21.4286C43.0963 21.9536 43.4212 22.4533 43.6934 23.1534C43.8987 23.682 44.1431 24.4762 44.2099 25.9386C44.282 27.5204 44.2972 27.9948 44.2972 31.9999C44.2972 36.0051 44.282 36.4795 44.2099 38.0612C44.1431 39.5237 43.8987 40.3179 43.6934 40.8465C43.4212 41.5466 43.0963 42.0464 42.5714 42.5712C42.0464 43.0961 41.5467 43.4211 40.8466 43.6932C40.318 43.8987 39.5238 44.143 38.0613 44.2097C36.4799 44.2819 36.0055 44.2972 32 44.2972C27.9945 44.2972 27.5202 44.2819 25.9387 44.2097C24.4762 44.143 23.682 43.8987 23.1534 43.6932C22.4533 43.4211 21.9536 43.0961 21.4288 42.5712C20.9039 42.0464 20.5787 41.5466 20.3066 40.8465C20.1012 40.3179 19.8569 39.5237 19.7901 38.0612C19.718 36.4795 19.7027 36.0051 19.7027 31.9999C19.7027 27.9948 19.718 27.5204 19.7901 25.9386C19.8569 24.4762 20.1012 23.682 20.3066 23.1534C20.5787 22.4533 20.9038 21.9536 21.4288 21.4288C21.9536 20.9037 22.4533 20.5787 23.1534 20.3066C23.682 20.1012 24.4762 19.8569 25.9387 19.7901C27.5204 19.718 27.9949 19.7027 32 19.7027ZM32 17C27.9262 17 27.4154 17.0172 25.8155 17.0902C24.219 17.1631 23.1285 17.4166 22.1744 17.7875C21.188 18.1708 20.3515 18.6836 19.5176 19.5176C18.6836 20.3515 18.1708 21.188 17.7875 22.1744C17.4166 23.1285 17.1631 24.2189 17.0902 25.8155C17.0172 27.4154 17 27.9263 17 31.9999C17 36.0737 17.0172 36.5845 17.0902 38.1844C17.1631 39.781 17.4166 40.8714 17.7875 41.8255C18.1708 42.8119 18.6836 43.6484 19.5176 44.4824C20.3515 45.3162 21.188 45.8291 22.1744 46.2124C23.1285 46.5832 24.219 46.8367 25.8155 46.9096C27.4154 46.9826 27.9262 46.9999 32 46.9999C36.0737 46.9999 36.5846 46.9826 38.1845 46.9096C39.781 46.8367 40.8715 46.5832 41.8256 46.2124C42.812 45.8291 43.6485 45.3162 44.4824 44.4824C45.3163 43.6484 45.8292 42.8119 46.2125 41.8255C46.5834 40.8714 46.8369 39.781 46.9097 38.1844C46.9827 36.5845 47 36.0737 47 31.9999C47 27.9263 46.9827 27.4154 46.9097 25.8155C46.8369 24.2189 46.5834 23.1285 46.2125 22.1744C45.8292 21.188 45.3163 20.3515 44.4824 19.5176C43.6485 18.6836 42.812 18.1708 41.8256 17.7875C40.8715 17.4166 39.781 17.1631 38.1845 17.0902C36.5846 17.0172 36.0737 17 32 17Z" fill="white"/>
<path d="M32.0073 24.3042C27.7532 24.3042 24.3047 27.7527 24.3047 32.0068C24.3047 36.2609 27.7532 39.7094 32.0073 39.7094C36.2614 39.7094 39.7101 36.2609 39.7101 32.0068C39.7101 27.7527 36.2614 24.3042 32.0073 24.3042ZM32.0073 37.0068C29.2459 37.0068 27.0073 34.7682 27.0073 32.0068C27.0073 29.2454 29.2459 27.0068 32.0073 27.0068C34.7688 27.0068 37.0073 29.2454 37.0073 32.0068C37.0073 34.7682 34.7688 37.0068 32.0073 37.0068Z" fill="white"/>
<path d="M41.8134 23.9954C41.8134 24.9894 41.0075 25.7954 40.0134 25.7954C39.0193 25.7954 38.2134 24.9894 38.2134 23.9954C38.2134 23.0013 39.0193 22.1953 40.0134 22.1953C41.0075 22.1953 41.8134 23.0013 41.8134 23.9954Z" fill="white"/>
<defs>
<linearGradient id="paint0_linear_260_100" x1="48" y1="13" x2="16" y2="52" gradientUnits="userSpaceOnUse">
<stop stop-color="#EA3B9E"/>
<stop offset="1" stop-color="#EEB76F"/>
</linearGradient>
</defs>
</svg>
