<svg width="64" height="64" viewBox="0 0 64 64" fill="none" xmlns="http://www.w3.org/2000/svg">
<rect width="64" height="64" rx="32" fill="white"/>
<path d="M32 57C45.8071 57 57 45.8071 57 32C57 18.1929 45.8071 7 32 7C18.1929 7 7 18.1929 7 32C7 45.8071 18.1929 57 32 57Z" fill="#0077B5"/>
<path fill-rule="evenodd" clip-rule="evenodd" d="M25.4681 19.8549C25.4681 21.4113 24.2831 22.6708 22.43 22.6708C20.649 22.6708 19.4639 21.4113 19.5006 19.8549C19.4639 18.2229 20.6489 17 22.4655 17C24.2831 17 25.4326 18.2229 25.4681 19.8549ZM19.6496 43.0239V24.8953H25.2836V43.0226L19.6496 43.0239Z" fill="white"/>
<path fill-rule="evenodd" clip-rule="evenodd" d="M29.799 30.6806C29.799 28.4195 29.7245 26.4917 29.65 24.8976H34.5438L34.8039 27.3811H34.9151C35.6566 26.2316 37.5098 24.4907 40.5125 24.4907C44.2189 24.4907 46.9993 26.9376 46.9993 32.2736V43.0261H41.3652V32.9796C41.3652 30.6428 40.5504 29.0497 38.5115 29.0497C36.954 29.0497 36.0279 30.1247 35.6578 31.162C35.5088 31.5333 35.4354 32.0513 35.4354 32.5716V43.0261H29.8013V30.6806H29.799Z" fill="white"/>
</svg>
