<svg width="268" height="78" viewBox="0 0 268 78" fill="none" xmlns="http://www.w3.org/2000/svg">
<g clip-path="url(#clip0_252_143)">
<g clip-path="url(#clip1_252_143)">
<g clip-path="url(#clip2_252_143)">
<path d="M88.1499 28.7076C85.4357 20.1983 74.9578 15.1289 64.7323 17.3891C60.4542 12.7519 53.7354 9.75584 46.168 9.75C46.0137 9.75 45.8664 9.76752 45.7192 9.79088C38.2429 9.91937 30.9771 13.0206 26.5868 18.6272C19.5243 27.6388 22.5681 39.7165 33.3967 45.5977V57.0038C32.3097 57.4301 31.5522 58.3412 31.5522 59.4041C31.5522 60.8759 32.9829 62.0673 34.7433 62.0673H76.7532C78.5135 62.0673 79.9443 60.8759 79.9443 59.41C79.9443 58.3412 79.1868 57.4243 78.0997 57.0038V47.1045C86.2843 43.7522 90.4923 36.0488 88.1499 28.7076ZM30.2968 38.1689C24.4126 30.851 26.7691 20.9458 35.5638 16.0517C44.3516 11.1517 56.2462 13.114 62.1234 20.4377L62.6423 21.0977C64.3676 23.498 65.3565 26.3014 65.3495 29.3033C65.3495 30.2728 66.2893 31.0554 67.4535 31.0554C67.4745 31.0554 67.4886 31.0554 67.5096 31.0554C68.6738 31.0437 69.5996 30.2494 69.5855 29.2799C69.5855 26.1495 68.6949 23.2002 67.1239 20.5779C74.032 19.5208 81.0734 22.657 83.6964 28.3046C86.663 34.6939 82.8408 41.8774 75.1682 44.3479L73.8426 44.7976V56.7585H37.6538V43.612L36.5948 43.0981C34.077 41.8774 31.9239 40.1954 30.2968 38.1805V38.1689Z" fill="black"/>
</g>
</g>
</g>
<path d="M98.7245 48V32.375H93.8995V29.375H106.9V32.375H102.15V48H98.7245ZM111.335 48.3C110.385 48.3 109.56 48.1417 108.86 47.825C108.16 47.5083 107.618 47.0583 107.235 46.475C106.852 45.875 106.66 45.1833 106.66 44.4C106.66 43.65 106.827 42.9833 107.16 42.4C107.493 41.8 108.01 41.3 108.71 40.9C109.41 40.5 110.293 40.2167 111.36 40.05L115.81 39.325V41.825L111.985 42.475C111.335 42.5917 110.852 42.8 110.535 43.1C110.218 43.4 110.06 43.7917 110.06 44.275C110.06 44.7417 110.235 45.1167 110.585 45.4C110.952 45.6667 111.402 45.8 111.935 45.8C112.618 45.8 113.218 45.6583 113.735 45.375C114.268 45.075 114.677 44.6667 114.96 44.15C115.26 43.6333 115.41 43.0667 115.41 42.45V38.95C115.41 38.3667 115.177 37.8833 114.71 37.5C114.26 37.1 113.66 36.9 112.91 36.9C112.21 36.9 111.585 37.0917 111.035 37.475C110.502 37.8417 110.11 38.3333 109.86 38.95L107.185 37.65C107.452 36.9333 107.868 36.3167 108.435 35.8C109.018 35.2667 109.702 34.85 110.485 34.55C111.268 34.25 112.118 34.1 113.035 34.1C114.152 34.1 115.135 34.3083 115.985 34.725C116.835 35.125 117.493 35.6917 117.96 36.425C118.443 37.1417 118.685 37.9833 118.685 38.95V48H115.585V45.675L116.285 45.625C115.935 46.2083 115.518 46.7 115.035 47.1C114.552 47.4833 114.002 47.7833 113.385 48C112.768 48.2 112.085 48.3 111.335 48.3ZM126.887 48.3C125.437 48.3 124.17 47.9583 123.087 47.275C122.02 46.575 121.287 45.6333 120.887 44.45L123.337 43.275C123.687 44.0417 124.17 44.6417 124.787 45.075C125.42 45.5083 126.12 45.725 126.887 45.725C127.487 45.725 127.962 45.5917 128.312 45.325C128.662 45.0583 128.837 44.7083 128.837 44.275C128.837 44.0083 128.762 43.7917 128.612 43.625C128.479 43.4417 128.287 43.2917 128.037 43.175C127.804 43.0417 127.545 42.9333 127.262 42.85L125.037 42.225C123.887 41.8917 123.012 41.3833 122.412 40.7C121.829 40.0167 121.537 39.2083 121.537 38.275C121.537 37.4417 121.745 36.7167 122.162 36.1C122.595 35.4667 123.187 34.975 123.937 34.625C124.704 34.275 125.579 34.1 126.562 34.1C127.845 34.1 128.979 34.4083 129.962 35.025C130.945 35.6417 131.645 36.5083 132.062 37.625L129.562 38.8C129.329 38.1833 128.937 37.6917 128.387 37.325C127.837 36.9583 127.22 36.775 126.537 36.775C125.987 36.775 125.554 36.9 125.237 37.15C124.92 37.4 124.762 37.725 124.762 38.125C124.762 38.375 124.829 38.5917 124.962 38.775C125.095 38.9583 125.279 39.1083 125.512 39.225C125.762 39.3417 126.045 39.45 126.362 39.55L128.537 40.2C129.654 40.5333 130.512 41.0333 131.112 41.7C131.729 42.3667 132.037 43.1833 132.037 44.15C132.037 44.9667 131.82 45.6917 131.387 46.325C130.954 46.9417 130.354 47.425 129.587 47.775C128.82 48.125 127.92 48.3 126.887 48.3ZM140.754 48.15C139.22 48.15 138.029 47.7333 137.179 46.9C136.345 46.05 135.929 44.8583 135.929 43.325V37.325H133.579V34.4H133.829C134.495 34.4 135.012 34.225 135.379 33.875C135.745 33.525 135.929 33.0167 135.929 32.35V31.3H139.204V34.4H142.329V37.325H139.204V43.15C139.204 43.6 139.279 43.9833 139.429 44.3C139.595 44.6167 139.845 44.8583 140.179 45.025C140.529 45.1917 140.97 45.275 141.504 45.275C141.62 45.275 141.754 45.2667 141.904 45.25C142.07 45.2333 142.229 45.2167 142.379 45.2V48C142.145 48.0333 141.879 48.0667 141.579 48.1C141.279 48.1333 141.004 48.15 140.754 48.15ZM151.209 48.3C149.809 48.3 148.584 47.9833 147.534 47.35C146.484 46.7167 145.667 45.8583 145.084 44.775C144.501 43.6917 144.209 42.4917 144.209 41.175C144.209 39.8083 144.501 38.6 145.084 37.55C145.684 36.4833 146.492 35.6417 147.509 35.025C148.542 34.4083 149.692 34.1 150.959 34.1C152.026 34.1 152.959 34.275 153.759 34.625C154.576 34.975 155.267 35.4583 155.834 36.075C156.401 36.6917 156.834 37.4 157.134 38.2C157.434 38.9833 157.584 39.8333 157.584 40.75C157.584 40.9833 157.567 41.225 157.534 41.475C157.517 41.725 157.476 41.9417 157.409 42.125H146.909V39.625H155.559L154.009 40.8C154.159 40.0333 154.117 39.35 153.884 38.75C153.667 38.15 153.301 37.675 152.784 37.325C152.284 36.975 151.676 36.8 150.959 36.8C150.276 36.8 149.667 36.975 149.134 37.325C148.601 37.6583 148.192 38.1583 147.909 38.825C147.642 39.475 147.542 40.2667 147.609 41.2C147.542 42.0333 147.651 42.775 147.934 43.425C148.234 44.0583 148.667 44.55 149.234 44.9C149.817 45.25 150.484 45.425 151.234 45.425C151.984 45.425 152.617 45.2667 153.134 44.95C153.667 44.6333 154.084 44.2083 154.384 43.675L157.034 44.975C156.767 45.625 156.351 46.2 155.784 46.7C155.217 47.2 154.542 47.5917 153.759 47.875C152.992 48.1583 152.142 48.3 151.209 48.3ZM160.342 48V29.375H163.592L170.567 38.85H169.017L175.842 29.375H179.092V48H175.667V33.25L176.992 33.575L169.917 43H169.517L162.617 33.575L163.742 33.25V48H160.342ZM186.506 48.3C185.556 48.3 184.731 48.1417 184.031 47.825C183.331 47.5083 182.789 47.0583 182.406 46.475C182.023 45.875 181.831 45.1833 181.831 44.4C181.831 43.65 181.998 42.9833 182.331 42.4C182.664 41.8 183.181 41.3 183.881 40.9C184.581 40.5 185.464 40.2167 186.531 40.05L190.981 39.325V41.825L187.156 42.475C186.506 42.5917 186.023 42.8 185.706 43.1C185.389 43.4 185.231 43.7917 185.231 44.275C185.231 44.7417 185.406 45.1167 185.756 45.4C186.123 45.6667 186.573 45.8 187.106 45.8C187.789 45.8 188.389 45.6583 188.906 45.375C189.439 45.075 189.848 44.6667 190.131 44.15C190.431 43.6333 190.581 43.0667 190.581 42.45V38.95C190.581 38.3667 190.348 37.8833 189.881 37.5C189.431 37.1 188.831 36.9 188.081 36.9C187.381 36.9 186.756 37.0917 186.206 37.475C185.673 37.8417 185.281 38.3333 185.031 38.95L182.356 37.65C182.623 36.9333 183.039 36.3167 183.606 35.8C184.189 35.2667 184.873 34.85 185.656 34.55C186.439 34.25 187.289 34.1 188.206 34.1C189.323 34.1 190.306 34.3083 191.156 34.725C192.006 35.125 192.664 35.6917 193.131 36.425C193.614 37.1417 193.856 37.9833 193.856 38.95V48H190.756V45.675L191.456 45.625C191.106 46.2083 190.689 46.7 190.206 47.1C189.723 47.4833 189.173 47.7833 188.556 48C187.939 48.2 187.256 48.3 186.506 48.3ZM202.058 48.3C200.608 48.3 199.341 47.9583 198.258 47.275C197.191 46.575 196.458 45.6333 196.058 44.45L198.508 43.275C198.858 44.0417 199.341 44.6417 199.958 45.075C200.591 45.5083 201.291 45.725 202.058 45.725C202.658 45.725 203.133 45.5917 203.483 45.325C203.833 45.0583 204.008 44.7083 204.008 44.275C204.008 44.0083 203.933 43.7917 203.783 43.625C203.65 43.4417 203.458 43.2917 203.208 43.175C202.975 43.0417 202.716 42.9333 202.433 42.85L200.208 42.225C199.058 41.8917 198.183 41.3833 197.583 40.7C197 40.0167 196.708 39.2083 196.708 38.275C196.708 37.4417 196.916 36.7167 197.333 36.1C197.766 35.4667 198.358 34.975 199.108 34.625C199.875 34.275 200.75 34.1 201.733 34.1C203.016 34.1 204.15 34.4083 205.133 35.025C206.116 35.6417 206.816 36.5083 207.233 37.625L204.733 38.8C204.5 38.1833 204.108 37.6917 203.558 37.325C203.008 36.9583 202.391 36.775 201.708 36.775C201.158 36.775 200.725 36.9 200.408 37.15C200.091 37.4 199.933 37.725 199.933 38.125C199.933 38.375 200 38.5917 200.133 38.775C200.266 38.9583 200.45 39.1083 200.683 39.225C200.933 39.3417 201.216 39.45 201.533 39.55L203.708 40.2C204.825 40.5333 205.683 41.0333 206.283 41.7C206.9 42.3667 207.208 43.1833 207.208 44.15C207.208 44.9667 206.991 45.6917 206.558 46.325C206.125 46.9417 205.525 47.425 204.758 47.775C203.991 48.125 203.091 48.3 202.058 48.3ZM215.925 48.15C214.391 48.15 213.2 47.7333 212.35 46.9C211.516 46.05 211.1 44.8583 211.1 43.325V37.325H208.75V34.4H209C209.666 34.4 210.183 34.225 210.55 33.875C210.916 33.525 211.1 33.0167 211.1 32.35V31.3H214.375V34.4H217.5V37.325H214.375V43.15C214.375 43.6 214.45 43.9833 214.6 44.3C214.766 44.6167 215.016 44.8583 215.35 45.025C215.7 45.1917 216.141 45.275 216.675 45.275C216.791 45.275 216.925 45.2667 217.075 45.25C217.241 45.2333 217.4 45.2167 217.55 45.2V48C217.316 48.0333 217.05 48.0667 216.75 48.1C216.45 48.1333 216.175 48.15 215.925 48.15ZM226.38 48.3C224.98 48.3 223.755 47.9833 222.705 47.35C221.655 46.7167 220.838 45.8583 220.255 44.775C219.671 43.6917 219.38 42.4917 219.38 41.175C219.38 39.8083 219.671 38.6 220.255 37.55C220.855 36.4833 221.663 35.6417 222.68 35.025C223.713 34.4083 224.863 34.1 226.13 34.1C227.196 34.1 228.13 34.275 228.93 34.625C229.746 34.975 230.438 35.4583 231.005 36.075C231.571 36.6917 232.005 37.4 232.305 38.2C232.605 38.9833 232.755 39.8333 232.755 40.75C232.755 40.9833 232.738 41.225 232.705 41.475C232.688 41.725 232.646 41.9417 232.58 42.125H222.08V39.625H230.73L229.18 40.8C229.33 40.0333 229.288 39.35 229.055 38.75C228.838 38.15 228.471 37.675 227.955 37.325C227.455 36.975 226.846 36.8 226.13 36.8C225.446 36.8 224.838 36.975 224.305 37.325C223.771 37.6583 223.363 38.1583 223.08 38.825C222.813 39.475 222.713 40.2667 222.78 41.2C222.713 42.0333 222.821 42.775 223.105 43.425C223.405 44.0583 223.838 44.55 224.405 44.9C224.988 45.25 225.655 45.425 226.405 45.425C227.155 45.425 227.788 45.2667 228.305 44.95C228.838 44.6333 229.255 44.2083 229.555 43.675L232.205 44.975C231.938 45.625 231.521 46.2 230.955 46.7C230.388 47.2 229.713 47.5917 228.93 47.875C228.163 48.1583 227.313 48.3 226.38 48.3ZM235.237 48V34.4H238.312V37.425L238.062 36.975C238.379 35.9583 238.871 35.25 239.537 34.85C240.221 34.45 241.037 34.25 241.987 34.25H242.787V37.15H241.612C240.679 37.15 239.929 37.4417 239.362 38.025C238.796 38.5917 238.512 39.3917 238.512 40.425V48H235.237Z" fill="black"/>
<defs>
<clipPath id="clip0_252_143">
<rect width="115" height="78" fill="white" transform="translate(0.34375)"/>
</clipPath>
<clipPath id="clip1_252_143">
<rect width="70.25" height="58.5" fill="white" transform="translate(22.7188 9.75)"/>
</clipPath>
<clipPath id="clip2_252_143">
<rect width="66.0166" height="52.3173" fill="white" transform="translate(22.7784 9.75)"/>
</clipPath>
</defs>
</svg>
