<svg width="222" height="59" viewBox="0 0 222 59" fill="none" xmlns="http://www.w3.org/2000/svg">
<path d="M76.0024 39V23.75H71.2774V20.375H84.5274V23.75H79.8774V39H76.0024ZM88.9071 39.3C87.9238 39.3 87.0738 39.1417 86.3571 38.825C85.6405 38.5083 85.0905 38.0583 84.7071 37.475C84.3238 36.875 84.1321 36.1667 84.1321 35.35C84.1321 34.5833 84.3071 33.9083 84.6571 33.325C85.0071 32.725 85.5405 32.225 86.2571 31.825C86.9905 31.425 87.8988 31.1417 88.9821 30.975L93.1571 30.3V33.05L89.6571 33.675C89.1238 33.775 88.7155 33.95 88.4321 34.2C88.1488 34.4333 88.0071 34.775 88.0071 35.225C88.0071 35.6417 88.1655 35.9667 88.4821 36.2C88.7988 36.4333 89.1905 36.55 89.6571 36.55C90.2738 36.55 90.8155 36.4167 91.2821 36.15C91.7488 35.8833 92.1071 35.525 92.3571 35.075C92.6238 34.6083 92.7571 34.1 92.7571 33.55V30C92.7571 29.4833 92.5488 29.05 92.1321 28.7C91.7321 28.35 91.1821 28.175 90.4821 28.175C89.8155 28.175 89.2238 28.3583 88.7071 28.725C88.2071 29.0917 87.8405 29.575 87.6071 30.175L84.6071 28.75C84.8738 27.9833 85.2988 27.325 85.8821 26.775C86.4655 26.225 87.1655 25.8 87.9821 25.5C88.7988 25.2 89.6905 25.05 90.6571 25.05C91.8071 25.05 92.8238 25.2583 93.7071 25.675C94.5905 26.0917 95.2738 26.675 95.7571 27.425C96.2571 28.1583 96.5071 29.0167 96.5071 30V39H93.0071V36.8L93.8571 36.65C93.4571 37.25 93.0155 37.75 92.5321 38.15C92.0488 38.5333 91.5071 38.8167 90.9071 39C90.3071 39.2 89.6405 39.3 88.9071 39.3ZM104.607 39.3C103.107 39.3 101.799 38.95 100.682 38.25C99.5823 37.5333 98.8323 36.575 98.4323 35.375L101.182 34.075C101.532 34.8083 102.007 35.3833 102.607 35.8C103.207 36.2167 103.874 36.425 104.607 36.425C105.141 36.425 105.549 36.3167 105.832 36.1C106.116 35.8833 106.257 35.5833 106.257 35.2C106.257 35 106.207 34.8333 106.107 34.7C106.007 34.55 105.857 34.4167 105.657 34.3C105.457 34.1833 105.207 34.0833 104.907 34L102.582 33.35C101.466 33.0333 100.607 32.525 100.007 31.825C99.4073 31.1083 99.1073 30.2667 99.1073 29.3C99.1073 28.45 99.324 27.7083 99.7573 27.075C100.191 26.4417 100.799 25.95 101.582 25.6C102.366 25.2333 103.266 25.05 104.282 25.05C105.616 25.05 106.782 25.3667 107.782 26C108.799 26.6167 109.516 27.4917 109.932 28.625L107.157 29.925C106.957 29.3583 106.591 28.9083 106.057 28.575C105.541 28.225 104.949 28.05 104.282 28.05C103.799 28.05 103.416 28.15 103.132 28.35C102.866 28.55 102.732 28.825 102.732 29.175C102.732 29.3583 102.782 29.525 102.882 29.675C102.982 29.825 103.141 29.9583 103.357 30.075C103.591 30.1917 103.874 30.3 104.207 30.4L106.382 31.05C107.516 31.3833 108.382 31.8917 108.982 32.575C109.582 33.2417 109.882 34.0667 109.882 35.05C109.882 35.9 109.657 36.6417 109.207 37.275C108.774 37.9083 108.166 38.4083 107.382 38.775C106.599 39.125 105.674 39.3 104.607 39.3ZM118.699 39.15C117.049 39.15 115.765 38.7083 114.849 37.825C113.949 36.925 113.499 35.675 113.499 34.075V28.6H111.199V25.35H111.324C112.024 25.35 112.557 25.175 112.924 24.825C113.307 24.475 113.499 23.95 113.499 23.25V22.25H117.249V25.35H120.449V28.6H117.249V33.825C117.249 34.2917 117.332 34.6833 117.499 35C117.665 35.3 117.924 35.525 118.274 35.675C118.624 35.825 119.057 35.9 119.574 35.9C119.69 35.9 119.824 35.8917 119.974 35.875C120.124 35.8583 120.282 35.8417 120.449 35.825V39C120.199 39.0333 119.915 39.0667 119.599 39.1C119.282 39.1333 118.982 39.15 118.699 39.15ZM129.221 39.3C127.771 39.3 126.513 38.9833 125.446 38.35C124.379 37.7 123.554 36.8333 122.971 35.75C122.388 34.6667 122.096 33.4667 122.096 32.15C122.096 30.7833 122.396 29.5667 122.996 28.5C123.613 27.4333 124.438 26.5917 125.471 25.975C126.504 25.3583 127.671 25.05 128.971 25.05C130.054 25.05 131.013 25.225 131.846 25.575C132.679 25.9083 133.379 26.3833 133.946 27C134.529 27.6167 134.971 28.3333 135.271 29.15C135.571 29.95 135.721 30.825 135.721 31.775C135.721 32.0417 135.704 32.3083 135.671 32.575C135.654 32.825 135.613 33.0417 135.546 33.225H125.321V30.475H133.421L131.646 31.775C131.813 31.0583 131.804 30.425 131.621 29.875C131.438 29.3083 131.113 28.8667 130.646 28.55C130.196 28.2167 129.638 28.05 128.971 28.05C128.321 28.05 127.763 28.2083 127.296 28.525C126.829 28.8417 126.479 29.3083 126.246 29.925C126.013 30.5417 125.921 31.2917 125.971 32.175C125.904 32.9417 125.996 33.6167 126.246 34.2C126.496 34.7833 126.879 35.2417 127.396 35.575C127.913 35.8917 128.538 36.05 129.271 36.05C129.938 36.05 130.504 35.9167 130.971 35.65C131.454 35.3833 131.829 35.0167 132.096 34.55L135.096 35.975C134.829 36.6417 134.404 37.225 133.821 37.725C133.254 38.225 132.579 38.6167 131.796 38.9C131.013 39.1667 130.154 39.3 129.221 39.3ZM138.204 39V20.375H141.954L148.929 29.625H147.179L153.954 20.375H157.704V39H153.829V24.65L155.379 25L148.204 34.25H147.704L140.779 25L142.079 24.65V39H138.204ZM164.957 39.3C163.974 39.3 163.124 39.1417 162.407 38.825C161.69 38.5083 161.14 38.0583 160.757 37.475C160.374 36.875 160.182 36.1667 160.182 35.35C160.182 34.5833 160.357 33.9083 160.707 33.325C161.057 32.725 161.59 32.225 162.307 31.825C163.04 31.425 163.949 31.1417 165.032 30.975L169.207 30.3V33.05L165.707 33.675C165.174 33.775 164.765 33.95 164.482 34.2C164.199 34.4333 164.057 34.775 164.057 35.225C164.057 35.6417 164.215 35.9667 164.532 36.2C164.849 36.4333 165.24 36.55 165.707 36.55C166.324 36.55 166.865 36.4167 167.332 36.15C167.799 35.8833 168.157 35.525 168.407 35.075C168.674 34.6083 168.807 34.1 168.807 33.55V30C168.807 29.4833 168.599 29.05 168.182 28.7C167.782 28.35 167.232 28.175 166.532 28.175C165.865 28.175 165.274 28.3583 164.757 28.725C164.257 29.0917 163.89 29.575 163.657 30.175L160.657 28.75C160.924 27.9833 161.349 27.325 161.932 26.775C162.515 26.225 163.215 25.8 164.032 25.5C164.849 25.2 165.74 25.05 166.707 25.05C167.857 25.05 168.874 25.2583 169.757 25.675C170.64 26.0917 171.324 26.675 171.807 27.425C172.307 28.1583 172.557 29.0167 172.557 30V39H169.057V36.8L169.907 36.65C169.507 37.25 169.065 37.75 168.582 38.15C168.099 38.5333 167.557 38.8167 166.957 39C166.357 39.2 165.69 39.3 164.957 39.3ZM180.657 39.3C179.157 39.3 177.849 38.95 176.732 38.25C175.632 37.5333 174.882 36.575 174.482 35.375L177.232 34.075C177.582 34.8083 178.057 35.3833 178.657 35.8C179.257 36.2167 179.924 36.425 180.657 36.425C181.19 36.425 181.599 36.3167 181.882 36.1C182.165 35.8833 182.307 35.5833 182.307 35.2C182.307 35 182.257 34.8333 182.157 34.7C182.057 34.55 181.907 34.4167 181.707 34.3C181.507 34.1833 181.257 34.0833 180.957 34L178.632 33.35C177.515 33.0333 176.657 32.525 176.057 31.825C175.457 31.1083 175.157 30.2667 175.157 29.3C175.157 28.45 175.374 27.7083 175.807 27.075C176.24 26.4417 176.849 25.95 177.632 25.6C178.415 25.2333 179.315 25.05 180.332 25.05C181.665 25.05 182.832 25.3667 183.832 26C184.849 26.6167 185.565 27.4917 185.982 28.625L183.207 29.925C183.007 29.3583 182.64 28.9083 182.107 28.575C181.59 28.225 180.999 28.05 180.332 28.05C179.849 28.05 179.465 28.15 179.182 28.35C178.915 28.55 178.782 28.825 178.782 29.175C178.782 29.3583 178.832 29.525 178.932 29.675C179.032 29.825 179.19 29.9583 179.407 30.075C179.64 30.1917 179.924 30.3 180.257 30.4L182.432 31.05C183.565 31.3833 184.432 31.8917 185.032 32.575C185.632 33.2417 185.932 34.0667 185.932 35.05C185.932 35.9 185.707 36.6417 185.257 37.275C184.824 37.9083 184.215 38.4083 183.432 38.775C182.649 39.125 181.724 39.3 180.657 39.3ZM194.748 39.15C193.098 39.15 191.815 38.7083 190.898 37.825C189.998 36.925 189.548 35.675 189.548 34.075V28.6H187.248V25.35H187.373C188.073 25.35 188.607 25.175 188.973 24.825C189.357 24.475 189.548 23.95 189.548 23.25V22.25H193.298V25.35H196.498V28.6H193.298V33.825C193.298 34.2917 193.382 34.6833 193.548 35C193.715 35.3 193.973 35.525 194.323 35.675C194.673 35.825 195.107 35.9 195.623 35.9C195.74 35.9 195.873 35.8917 196.023 35.875C196.173 35.8583 196.332 35.8417 196.498 35.825V39C196.248 39.0333 195.965 39.0667 195.648 39.1C195.332 39.1333 195.032 39.15 194.748 39.15ZM205.271 39.3C203.821 39.3 202.562 38.9833 201.496 38.35C200.429 37.7 199.604 36.8333 199.021 35.75C198.437 34.6667 198.146 33.4667 198.146 32.15C198.146 30.7833 198.446 29.5667 199.046 28.5C199.662 27.4333 200.487 26.5917 201.521 25.975C202.554 25.3583 203.721 25.05 205.021 25.05C206.104 25.05 207.062 25.225 207.896 25.575C208.729 25.9083 209.429 26.3833 209.996 27C210.579 27.6167 211.021 28.3333 211.321 29.15C211.621 29.95 211.771 30.825 211.771 31.775C211.771 32.0417 211.754 32.3083 211.721 32.575C211.704 32.825 211.662 33.0417 211.596 33.225H201.371V30.475H209.471L207.696 31.775C207.862 31.0583 207.854 30.425 207.671 29.875C207.487 29.3083 207.162 28.8667 206.696 28.55C206.246 28.2167 205.687 28.05 205.021 28.05C204.371 28.05 203.812 28.2083 203.346 28.525C202.879 28.8417 202.529 29.3083 202.296 29.925C202.062 30.5417 201.971 31.2917 202.021 32.175C201.954 32.9417 202.046 33.6167 202.296 34.2C202.546 34.7833 202.929 35.2417 203.446 35.575C203.962 35.8917 204.587 36.05 205.321 36.05C205.987 36.05 206.554 35.9167 207.021 35.65C207.504 35.3833 207.879 35.0167 208.146 34.55L211.146 35.975C210.879 36.6417 210.454 37.225 209.871 37.725C209.304 38.225 208.629 38.6167 207.846 38.9C207.062 39.1667 206.204 39.3 205.271 39.3ZM213.979 39V25.35H217.479V28.625L217.229 28.15C217.529 27 218.021 26.225 218.704 25.825C219.404 25.4083 220.229 25.2 221.179 25.2H221.979V28.45H220.804C219.887 28.45 219.146 28.7333 218.579 29.3C218.012 29.85 217.729 30.6333 217.729 31.65V39H213.979Z" fill="#E76F51"/>
<g clip-path="url(#clip0_139_906)">
<g clip-path="url(#clip1_139_906)">
<path d="M65.431 18.9576C62.7169 10.4483 52.239 5.37891 42.0135 7.6391C37.7354 3.00191 31.0166 0.00584029 23.4492 0C23.2949 0 23.1476 0.0175209 23.0003 0.040882C15.5241 0.169368 8.25831 3.27056 3.86796 8.87724C-3.19447 17.8888 -0.150684 29.9665 10.6779 35.8477V47.2538C9.59084 47.6801 8.8334 48.5912 8.8334 49.6541C8.8334 51.1259 10.2641 52.3173 12.0245 52.3173H54.0344C55.7947 52.3173 57.2254 51.1259 57.2254 49.66C57.2254 48.5912 56.468 47.6743 55.3809 47.2538V37.3545C63.5655 34.0022 67.7735 26.2988 65.431 18.9576ZM7.57802 28.4189C1.69382 21.101 4.05031 11.1958 12.845 6.30167C21.6327 1.40167 33.5274 3.36401 39.4045 10.6877L39.9235 11.3477C41.6488 13.748 42.6377 16.5514 42.6307 19.5533C42.6307 20.5228 43.5705 21.3054 44.7347 21.3054C44.7557 21.3054 44.7697 21.3054 44.7908 21.3054C45.955 21.2937 46.8808 20.4994 46.8667 19.5299C46.8667 16.3995 45.976 13.4502 44.4051 10.8279C51.3132 9.77081 58.3546 12.907 60.9776 18.5546C63.9442 24.9439 60.1219 32.1274 52.4494 34.5979L51.1238 35.0476V47.0085H14.935V33.862L13.876 33.3481C11.3582 32.1274 9.20511 30.4454 7.57802 28.4305V28.4189Z" fill="#E76F51"/>
</g>
</g>
<defs>
<clipPath id="clip0_139_906">
<rect width="70.25" height="58.5" fill="white"/>
</clipPath>
<clipPath id="clip1_139_906">
<rect width="66.0166" height="52.3173" fill="white" transform="translate(0.0596924)"/>
</clipPath>
</defs>
</svg>
