<svg width="64" height="64" viewBox="0 0 64 64" fill="none" xmlns="http://www.w3.org/2000/svg">
<rect width="64" height="64" rx="32" fill="white"/>
<path fill-rule="evenodd" clip-rule="evenodd" d="M32.0015 7C18.1954 7 7 18.1924 7 32.0015C7 42.2355 13.1563 51.0319 21.9674 54.8979C21.8968 53.1545 21.9556 51.0554 22.3996 49.1562C22.8817 47.1276 25.6158 35.5353 25.6158 35.5353C25.6158 35.5353 24.8191 33.9389 24.8191 31.5781C24.8191 27.8738 26.9682 25.1073 29.6407 25.1073C31.9133 25.1073 33.0128 26.8154 33.0128 28.8616C33.0128 31.1459 31.5546 34.5651 30.8049 37.7315C30.1787 40.3862 32.1338 42.5471 34.7503 42.5471C39.4866 42.5471 42.6765 36.4643 42.6765 29.2555C42.6765 23.7784 38.9868 19.6771 32.2749 19.6771C24.6927 19.6771 19.9682 25.3307 19.9682 31.6457C19.9682 33.8272 20.6091 35.3619 21.6146 36.5496C22.0791 37.0994 22.1408 37.3169 21.9733 37.9461C21.8557 38.4018 21.5793 39.5131 21.4646 39.9511C21.2971 40.5832 20.7855 40.8125 20.2152 40.5773C16.7195 39.1515 15.0937 35.3266 15.0937 31.0254C15.0937 23.9254 21.0824 15.4054 32.9599 15.4054C42.506 15.4054 48.7887 22.3172 48.7887 29.7289C48.7887 39.5366 43.338 46.863 35.2972 46.863C32.6012 46.863 30.0611 45.4048 29.1909 43.7496C29.1909 43.7496 27.7385 49.509 27.4328 50.6203C26.9036 52.5459 25.8657 54.4746 24.9161 55.9739C27.1652 56.6384 29.5407 57 32.0015 57C45.8075 57 57 45.8075 57 32.0015C57 18.1924 45.8075 7 32.0015 7Z" fill="#CC2127"/>
</svg>
