<svg width="50" height="50" viewBox="0 0 50 50" fill="none" xmlns="http://www.w3.org/2000/svg">
<path d="M25 50C38.8071 50 50 38.8071 50 25C50 11.1929 38.8071 0 25 0C11.1929 0 0 11.1929 0 25C0 38.8071 11.1929 50 25 50Z" fill="url(#paint0_linear_204_1423)"/>
<path d="M25 12.7027C29.0051 12.7027 29.4796 12.718 31.0613 12.7901C32.5238 12.8569 33.318 13.1012 33.8466 13.3066C34.5467 13.5787 35.0464 13.9037 35.5713 14.4286C36.0963 14.9536 36.4212 15.4533 36.6934 16.1534C36.8987 16.682 37.1431 17.4762 37.2099 18.9386C37.282 20.5204 37.2972 20.9948 37.2972 24.9999C37.2972 29.0051 37.282 29.4795 37.2099 31.0612C37.1431 32.5237 36.8987 33.3179 36.6934 33.8465C36.4212 34.5466 36.0963 35.0464 35.5714 35.5712C35.0464 36.0961 34.5467 36.4211 33.8466 36.6932C33.318 36.8987 32.5238 37.143 31.0613 37.2097C29.4799 37.2819 29.0055 37.2972 25 37.2972C20.9945 37.2972 20.5202 37.2819 18.9387 37.2097C17.4762 37.143 16.682 36.8987 16.1534 36.6932C15.4533 36.4211 14.9536 36.0961 14.4288 35.5712C13.9039 35.0464 13.5787 34.5466 13.3066 33.8465C13.1012 33.3179 12.8569 32.5237 12.7901 31.0612C12.718 29.4795 12.7027 29.0051 12.7027 24.9999C12.7027 20.9948 12.718 20.5204 12.7901 18.9386C12.8569 17.4762 13.1012 16.682 13.3066 16.1534C13.5787 15.4533 13.9038 14.9536 14.4288 14.4288C14.9536 13.9037 15.4533 13.5787 16.1534 13.3066C16.682 13.1012 17.4762 12.8569 18.9387 12.7901C20.5204 12.718 20.9949 12.7027 25 12.7027ZM25 10C20.9262 10 20.4154 10.0172 18.8155 10.0902C17.219 10.1631 16.1285 10.4166 15.1744 10.7875C14.188 11.1708 13.3515 11.6836 12.5176 12.5176C11.6836 13.3515 11.1708 14.188 10.7875 15.1744C10.4166 16.1285 10.1631 17.2189 10.0902 18.8155C10.0172 20.4154 10 20.9263 10 24.9999C10 29.0737 10.0172 29.5845 10.0902 31.1844C10.1631 32.781 10.4166 33.8714 10.7875 34.8255C11.1708 35.8119 11.6836 36.6484 12.5176 37.4824C13.3515 38.3162 14.188 38.8291 15.1744 39.2124C16.1285 39.5832 17.219 39.8367 18.8155 39.9096C20.4154 39.9826 20.9262 39.9999 25 39.9999C29.0737 39.9999 29.5846 39.9826 31.1845 39.9096C32.781 39.8367 33.8715 39.5832 34.8256 39.2124C35.812 38.8291 36.6485 38.3162 37.4824 37.4824C38.3163 36.6484 38.8292 35.8119 39.2125 34.8255C39.5834 33.8714 39.8369 32.781 39.9097 31.1844C39.9827 29.5845 40 29.0737 40 24.9999C40 20.9263 39.9827 20.4154 39.9097 18.8155C39.8369 17.2189 39.5834 16.1285 39.2125 15.1744C38.8292 14.188 38.3163 13.3515 37.4824 12.5176C36.6485 11.6836 35.812 11.1708 34.8256 10.7875C33.8715 10.4166 32.781 10.1631 31.1845 10.0902C29.5846 10.0172 29.0737 10 25 10Z" fill="white"/>
<path d="M25.0073 17.3042C20.7532 17.3042 17.3047 20.7527 17.3047 25.0068C17.3047 29.2609 20.7532 32.7094 25.0073 32.7094C29.2614 32.7094 32.7101 29.2609 32.7101 25.0068C32.7101 20.7527 29.2614 17.3042 25.0073 17.3042ZM25.0073 30.0068C22.2459 30.0068 20.0073 27.7682 20.0073 25.0068C20.0073 22.2454 22.2459 20.0068 25.0073 20.0068C27.7688 20.0068 30.0073 22.2454 30.0073 25.0068C30.0073 27.7682 27.7688 30.0068 25.0073 30.0068Z" fill="white"/>
<path d="M34.8134 16.9954C34.8134 17.9894 34.0075 18.7954 33.0134 18.7954C32.0193 18.7954 31.2134 17.9894 31.2134 16.9954C31.2134 16.0013 32.0193 15.1953 33.0134 15.1953C34.0075 15.1953 34.8134 16.0013 34.8134 16.9954Z" fill="white"/>
<defs>
<linearGradient id="paint0_linear_204_1423" x1="41" y1="6" x2="9" y2="45" gradientUnits="userSpaceOnUse">
<stop stop-color="#EA3B9E"/>
<stop offset="1" stop-color="#EEB76F"/>
</linearGradient>
</defs>
</svg>
