<svg width="20" height="17" viewBox="0 0 20 17" fill="none" xmlns="http://www.w3.org/2000/svg">
<g clip-path="url(#clip0_380_1455)">
<path d="M11 7.65H15V9.35H11V12.75H9V9.35H5V7.65H9V4.25H11V7.65ZM10 17C7.34784 17 4.8043 16.1045 2.92893 14.5104C1.05357 12.9163 0 10.7543 0 8.5C0 6.24566 1.05357 4.08365 2.92893 2.48959C4.8043 0.895533 7.34784 0 10 0C12.6522 0 15.1957 0.895533 17.0711 2.48959C18.9464 4.08365 20 6.24566 20 8.5C20 10.7543 18.9464 12.9163 17.0711 14.5104C15.1957 16.1045 12.6522 17 10 17ZM10 15.3C12.1217 15.3 14.1566 14.5836 15.6569 13.3083C17.1571 12.0331 18 10.3035 18 8.5C18 6.69653 17.1571 4.96692 15.6569 3.69167C14.1566 2.41643 12.1217 1.7 10 1.7C7.87827 1.7 5.84344 2.41643 4.34315 3.69167C2.84285 4.96692 2 6.69653 2 8.5C2 10.3035 2.84285 12.0331 4.34315 13.3083C5.84344 14.5836 7.87827 15.3 10 15.3Z" fill="white"/>
</g>
<defs>
<clipPath id="clip0_380_1455">
<rect width="20" height="17" rx="8.5" fill="white"/>
</clipPath>
</defs>
</svg>
