<svg width="18" height="16" viewBox="0 0 18 16" fill="none" xmlns="http://www.w3.org/2000/svg">
<path d="M4.09813 4.74097H3.18309C2.69773 4.74097 2.23224 4.89705 1.88904 5.17488C1.54584 5.45271 1.35303 5.82953 1.35303 6.22245V12.8891C1.35303 13.282 1.54584 13.6588 1.88904 13.9367C2.23224 14.2145 2.69773 14.3706 3.18309 14.3706H11.4184C11.9037 14.3706 12.3692 14.2145 12.7124 13.9367C13.0556 13.6588 13.2485 13.282 13.2485 12.8891V12.1484" stroke="white" stroke-width="2" stroke-linecap="round" stroke-linejoin="round"/>
<path d="M12.3335 3.25939L15.0785 5.48162M16.3459 4.43347C16.7063 4.14173 16.9087 3.74605 16.9087 3.33347C16.9087 2.92089 16.7063 2.52521 16.3459 2.23347C15.9855 1.94173 15.4967 1.77783 14.987 1.77783C14.4774 1.77783 13.9886 1.94173 13.6282 2.23347L5.92822 8.44458V10.6668H8.67332L16.3459 4.43347Z" stroke="white" stroke-width="2" stroke-linecap="round" stroke-linejoin="round"/>
</svg>
